<svg preserveAspectRatio="none" width="100%" height="100%" overflow="visible" style="display: block;" viewBox="0 0 280 280" fill="none" xmlns="http://www.w3.org/2000/svg">
<g id="priority-arrows 2" clip-path="url(#clip0_0_18)">
<path id="Vector" d="M227.5 0H52.5C23.555 0 0 23.555 0 52.5V227.5C0 256.445 23.555 280 52.5 280H227.5C256.445 280 280 256.445 280 227.5V52.5C280 23.555 256.445 0 227.5 0ZM268.333 227.5C268.333 250.017 250.017 268.333 227.5 268.333H52.5C29.9833 268.333 11.6667 250.017 11.6667 227.5V52.5C11.6667 29.9833 29.9833 11.6667 52.5 11.6667H227.5C250.017 11.6667 268.333 29.9833 268.333 52.5V227.5ZM138.297 119.373C137.153 120.517 135.66 121.077 134.167 121.077C132.673 121.077 131.18 120.505 130.037 119.373L95.7483 85.085C95.0133 84.35 94.1967 83.7317 93.3333 83.23V204.167C93.3333 207.387 90.72 210 87.5 210C84.28 210 81.6667 207.387 81.6667 204.167V83.23C80.8033 83.7317 79.9867 84.3383 79.2517 85.085L44.9633 119.373C42.6883 121.648 38.99 121.648 36.715 119.373C34.44 117.098 34.44 113.4 36.715 111.125L71.0033 76.8367C74.97 72.87 81.6667 70 87.5 70C93.3333 70 100.03 72.87 103.997 76.8367L138.285 111.125C140.56 113.4 140.56 117.098 138.285 119.373H138.297ZM243.297 160.615C245.572 162.89 245.572 166.588 243.297 168.863L209.008 203.152C204.598 207.562 198.742 209.988 192.512 209.988C186.282 209.988 180.425 207.562 176.015 203.152L141.727 168.863C139.452 166.588 139.452 162.89 141.727 160.615C144.002 158.34 147.7 158.34 149.975 160.615L184.263 194.903C184.998 195.638 185.815 196.257 186.678 196.758V75.8333C186.678 72.6133 189.292 70 192.512 70C195.732 70 198.345 72.6133 198.345 75.8333V196.77C199.208 196.268 200.025 195.662 200.76 194.915L235.048 160.627C237.323 158.352 241.022 158.34 243.297 160.615Z" fill="var(--fill-0, #7B7B7B)" fill-opacity="0.03"/>
</g>
<defs>
<clipPath id="clip0_0_18">
<rect width="280" height="280" fill="white"/>
</clipPath>
</defs>
</svg>
