<svg preserveAspectRatio="none" width="100%" height="100%" overflow="visible" style="display: block;" viewBox="0 0 280 280" fill="none" xmlns="http://www.w3.org/2000/svg">
<g id="shield-check 2" clip-path="url(#clip0_0_4)">
<path id="Vector" d="M140 279.405C139.102 279.405 138.215 279.195 137.387 278.787L132.428 276.313C106.832 263.503 23.2983 215.752 23.2983 138.647L23.3217 76.2767C23.3217 53.6083 37.7767 33.5767 59.3017 26.4483L138.168 0.291667C139.358 -0.105 140.653 -0.105 141.832 0.291667L220.687 26.4367C242.212 33.5767 256.667 53.6083 256.667 76.265L256.632 138.635C256.632 226.112 172.958 266.583 147.315 276.908L142.17 278.973C141.47 279.253 140.723 279.393 139.988 279.393L140 279.405ZM140 11.9817L62.9767 37.52C46.235 43.0733 35 58.6483 35 76.2767L34.9767 138.647C34.9767 209.055 113.563 253.843 137.655 265.883L140.268 267.19L142.975 266.105C166.903 256.48 244.977 218.832 244.977 138.658L245.012 76.2883C245.012 58.66 233.765 43.085 217.035 37.5317L140 11.9817Z" fill="var(--fill-0, #7B7B7B)" fill-opacity="0.03"/>
<path id="Vector_2" d="M128.112 175C120.633 175 113.155 172.153 107.462 166.46L71.8083 132.568C69.475 130.352 69.3817 126.653 71.5983 124.32C73.815 121.998 77.5017 121.893 79.8467 124.11L115.605 158.107C122.535 165.025 133.63 165.037 140.455 158.212L205.928 94.9783C208.262 92.75 211.96 92.82 214.177 95.13C216.417 97.44 216.358 101.138 214.037 103.378L148.622 166.542C142.987 172.177 135.543 175.012 128.1 175.012L128.112 175Z" fill="var(--fill-0, #7B7B7B)" fill-opacity="0.03"/>
</g>
<defs>
<clipPath id="clip0_0_4">
<rect width="280" height="280" fill="white"/>
</clipPath>
</defs>
</svg>
