<svg preserveAspectRatio="none" width="100%" height="100%" overflow="visible" style="display: block;" viewBox="0 0 280 280" fill="none" xmlns="http://www.w3.org/2000/svg">
<g id="money-bills 2" clip-path="url(#clip0_0_25)">
<path id="Vector" d="M239.167 35H75.8333C53.3167 35 35 53.3167 35 75.8333V169.167C35 191.683 53.3167 210 75.8333 210H239.167C261.683 210 280 191.683 280 169.167V75.8333C280 53.3167 261.683 35 239.167 35ZM268.333 169.167C268.333 185.267 255.267 198.333 239.167 198.333H75.8333C59.7333 198.333 46.6667 185.267 46.6667 169.167V75.8333C46.6667 59.7333 59.7333 46.6667 75.8333 46.6667H239.167C255.267 46.6667 268.333 59.7333 268.333 75.8333V169.167ZM221.667 239.167C221.667 242.433 219.1 245 215.833 245H52.5C23.5667 245 -4.17233e-06 221.433 -4.17233e-06 192.5V99.1667C-4.17233e-06 95.9 2.56666 93.3333 5.83333 93.3333C9.1 93.3333 11.6667 95.9 11.6667 99.1667V192.5C11.6667 215.017 29.9833 233.333 52.5 233.333H215.833C219.1 233.333 221.667 235.9 221.667 239.167ZM157.5 81.6667C134.983 81.6667 116.667 99.9833 116.667 122.5C116.667 145.017 134.983 163.333 157.5 163.333C180.017 163.333 198.333 145.017 198.333 122.5C198.333 99.9833 180.017 81.6667 157.5 81.6667ZM157.5 151.667C141.4 151.667 128.333 138.6 128.333 122.5C128.333 106.4 141.4 93.3333 157.5 93.3333C173.6 93.3333 186.667 106.4 186.667 122.5C186.667 138.6 173.6 151.667 157.5 151.667ZM93.3333 81.6667C93.3333 88.0833 88.0833 93.3333 81.6667 93.3333C75.25 93.3333 70 88.0833 70 81.6667C70 75.25 75.25 70 81.6667 70C88.0833 70 93.3333 75.25 93.3333 81.6667ZM93.3333 163.333C93.3333 169.75 88.0833 175 81.6667 175C75.25 175 70 169.75 70 163.333C70 156.917 75.25 151.667 81.6667 151.667C88.0833 151.667 93.3333 156.917 93.3333 163.333ZM245 81.6667C245 88.0833 239.75 93.3333 233.333 93.3333C226.917 93.3333 221.667 88.0833 221.667 81.6667C221.667 75.25 226.917 70 233.333 70C239.75 70 245 75.25 245 81.6667ZM245 163.333C245 169.75 239.75 175 233.333 175C226.917 175 221.667 169.75 221.667 163.333C221.667 156.917 226.917 151.667 233.333 151.667C239.75 151.667 245 156.917 245 163.333Z" fill="var(--fill-0, #7B7B7B)" fill-opacity="0.03"/>
</g>
<defs>
<clipPath id="clip0_0_25">
<rect width="280" height="280" fill="white"/>
</clipPath>
</defs>
</svg>
