<svg preserveAspectRatio="none" width="100%" height="100%" overflow="visible" style="display: block;" viewBox="0 0 60 60" fill="none" xmlns="http://www.w3.org/2000/svg">
<g id="tools 1" clip-path="url(#clip0_0_20)">
<path id="Vector" d="M42.8125 32.2125C40.1925 29.6025 36.1075 29.3425 33.175 31.4075L20 18.2325V10C20 7.915 18.8775 5.9725 17.07 4.93L9.6175 0.63C7.7775 -0.435 5.445 -0.125 3.9425 1.3775L1.3775 3.9425C-0.125 5.445 -0.4325 7.775 0.6275 9.6175L4.925 17.07C5.9675 18.8775 7.91 20 9.9975 20H18.23L31.3975 33.1675C30.4875 34.4325 29.98 35.9325 29.98 37.52C29.98 39.525 30.7625 41.4075 32.185 42.8225L47.2375 57.805C48.6475 59.21 50.57 60 52.555 60C55 60 57.0325 58.88 58.385 57.235C60.7925 54.2975 60.455 49.7775 57.6125 46.9425L42.8125 32.2125ZM7.09 15.82L2.7925 8.3675C2.295 7.505 2.44 6.415 3.1425 5.7125L5.7075 3.1475C6.41 2.445 7.5075 2.3025 8.365 2.795L15.815 7.095C16.8525 7.6925 17.495 8.81 17.495 10.0025V17.5025H9.995C8.8 17.5025 7.6875 16.8575 7.0875 15.8225L7.09 15.82ZM56.45 55.6475C55.5325 56.765 54.2375 57.4225 52.805 57.4925C51.38 57.5575 50.0025 57.03 49 56.0325L33.9475 41.05C33.0025 40.1075 32.48 38.8525 32.48 37.52C32.48 36.185 33 34.93 33.9475 33.9825C34.9275 33.0075 36.2125 32.52 37.495 32.52C38.7775 32.52 40.065 33.0075 41.045 33.9825L55.8425 48.7125C57.7825 50.645 58.0475 53.6925 56.445 55.645L56.45 55.6475ZM23.195 13.49C25.1575 6.735 30.8825 1.5625 37.7775 0.31C40.515 -0.185 43.245 -0.0875 45.8875 0.6C47.1325 0.925 48.0775 1.8575 48.4175 3.0975C48.7525 4.325 48.4175 5.6 47.5225 6.5025L38.665 15.435C37.05 17.05 37.05 19.675 38.6625 21.2875C40.275 22.9 42.8975 22.8975 44.51 21.2875L53.4025 12.32C54.295 11.415 55.56 11.0725 56.7925 11.3975C58.0375 11.7275 58.98 12.67 59.3175 13.92C60.0275 16.5675 60.145 19.3 59.665 22.05C58.825 26.8775 55.995 31.285 51.8975 34.145C51.68 34.2975 51.43 34.37 51.1825 34.37C50.7875 34.37 50.4 34.185 50.155 33.835C49.76 33.2675 49.8975 32.49 50.465 32.095C54.02 29.615 56.475 25.7975 57.2 21.6225C57.6175 19.235 57.515 16.8625 56.9 14.5725C56.755 14.0325 56.3275 13.865 56.15 13.8175C55.9775 13.765 55.5425 13.7075 55.175 14.08L46.2775 23.0525C43.69 25.645 39.4825 25.6475 36.8925 23.0575C35.64 21.805 34.95 20.14 34.95 18.365C34.95 16.59 35.64 14.9275 36.8925 13.675L45.7475 4.745C46.12 4.3675 46.0525 3.93 46.005 3.7575C45.9575 3.5825 45.7875 3.1575 45.2575 3.0175C42.965 2.425 40.6025 2.34 38.225 2.77C32.255 3.855 27.2975 8.335 25.5975 14.185C25.405 14.8475 24.72 15.23 24.0475 15.0375C23.385 14.845 23.005 14.1525 23.1975 13.4875L23.195 13.49ZM26.5175 42.3725C27.005 42.8625 27.005 43.655 26.5175 44.1425L12.8125 57.8075C11.4025 59.2125 9.48 60.0025 7.495 60.0025C5.0025 60.0025 3.0175 58.885 1.6675 57.24C-0.7425 54.3025 -0.405 49.7825 2.4375 46.9475L19.88 29.555C20.37 29.0725 21.16 29.07 21.6475 29.555C22.135 30.045 22.135 30.8375 21.6475 31.325L4.205 48.7175C2.265 50.65 2 53.6975 3.6025 55.65C4.52 56.7675 5.815 57.4225 7.2475 57.4925C8.695 57.5925 10.05 57.03 11.05 56.0325L24.755 42.3675C25.2425 41.885 26.035 41.8825 26.5225 42.3675L26.5175 42.3725Z" fill="var(--fill-0, #7B7B7B)"/>
</g>
<defs>
<clipPath id="clip0_0_20">
<rect width="60" height="60" fill="white"/>
</clipPath>
</defs>
</svg>
