<svg preserveAspectRatio="none" width="100%" height="100%" overflow="visible" style="display: block;" viewBox="0 0 280 280" fill="none" xmlns="http://www.w3.org/2000/svg">
<g id="tools 2" clip-path="url(#clip0_0_29)">
<path id="Vector" d="M199.792 150.325C187.565 138.145 168.502 136.932 154.817 146.568L93.3333 85.085V46.6667C93.3333 36.9367 88.095 27.8717 79.66 23.0067L44.8817 2.94C36.295 -2.03 25.41 -0.583334 18.3983 6.42833L6.42833 18.3983C-0.583333 25.41 -2.01833 36.2833 2.92833 44.8817L22.9833 79.66C27.8483 88.095 36.9133 93.3333 46.655 93.3333H85.0733L146.522 154.782C142.275 160.685 139.907 167.685 139.907 175.093C139.907 184.45 143.558 193.235 150.197 199.838L220.442 269.757C227.022 276.313 235.993 280 245.257 280C256.667 280 266.152 274.773 272.463 267.097C283.698 253.388 282.123 232.295 268.858 219.065L199.792 150.325ZM33.0867 73.8267L13.0317 39.0483C10.71 35.0233 11.3867 29.9367 14.665 26.6583L26.635 14.6883C29.9133 11.41 35.035 10.745 39.0367 13.0433L73.8033 33.11C78.645 35.8983 81.6433 41.1133 81.6433 46.6783V81.6783H46.6433C41.0667 81.6783 35.875 78.6683 33.075 73.8383L33.0867 73.8267ZM263.433 259.688C259.152 264.903 253.108 267.972 246.423 268.298C239.773 268.602 233.345 266.14 228.667 261.485L158.422 191.567C154.012 187.168 151.573 181.312 151.573 175.093C151.573 168.863 154 163.007 158.422 158.585C162.995 154.035 168.992 151.76 174.977 151.76C180.962 151.76 186.97 154.035 191.543 158.585L260.598 227.325C269.652 236.343 270.888 250.565 263.41 259.677L263.433 259.688ZM108.243 62.9533C117.402 31.43 144.118 7.29167 176.295 1.44667C189.07 -0.863333 201.81 -0.408333 214.142 2.8C219.952 4.31667 224.362 8.66833 225.948 14.455C227.512 20.1833 225.948 26.1333 221.772 30.345L180.437 72.03C172.9 79.5667 172.9 91.8167 180.425 99.3417C187.95 106.867 200.188 106.855 207.713 99.3417L249.212 57.4933C253.377 53.27 259.28 51.6717 265.032 53.1883C270.842 54.7283 275.24 59.1267 276.815 64.96C280.128 77.315 280.677 90.0667 278.437 102.9C274.517 125.428 261.31 145.997 242.188 159.343C241.173 160.055 240.007 160.393 238.852 160.393C237.008 160.393 235.2 159.53 234.057 157.897C232.213 155.248 232.855 151.62 235.503 149.777C252.093 138.203 263.55 120.388 266.933 100.905C268.882 89.7633 268.403 78.6917 265.533 68.005C264.857 65.485 262.862 64.7033 262.033 64.4817C261.228 64.2367 259.198 63.9683 257.483 65.7067L215.962 107.578C203.887 119.677 184.252 119.688 172.165 107.602C166.32 101.757 163.1 93.9867 163.1 85.7033C163.1 77.42 166.32 69.6617 172.165 63.8167L213.488 22.1433C215.227 20.3817 214.912 18.34 214.69 17.535C214.468 16.7183 213.675 14.735 211.202 14.0817C200.503 11.3167 189.478 10.92 178.383 12.9267C150.523 17.99 127.388 38.8967 119.455 66.1967C118.557 69.2883 115.36 71.0733 112.222 70.175C109.13 69.2767 107.357 66.045 108.255 62.9417L108.243 62.9533ZM123.748 197.738C126.023 200.025 126.023 203.723 123.748 205.998L59.7917 269.768C53.2117 276.325 44.24 280.012 34.9767 280.012C23.345 280.012 14.0817 274.797 7.78167 267.12C-3.465 253.412 -1.89 232.318 11.375 219.088L92.7733 137.923C95.06 135.672 98.7467 135.66 101.022 137.923C103.297 140.21 103.297 143.908 101.022 146.183L19.6233 227.348C10.57 236.367 9.33333 250.588 16.8117 259.7C21.0933 264.915 27.1367 267.972 33.8217 268.298C40.5767 268.765 46.9 266.14 51.5667 261.485L115.523 197.715C117.798 195.463 121.497 195.452 123.772 197.715L123.748 197.738Z" fill="var(--fill-0, #7B7B7B)" fill-opacity="0.03"/>
</g>
<defs>
<clipPath id="clip0_0_29">
<rect width="280" height="280" fill="white"/>
</clipPath>
</defs>
</svg>
