<svg preserveAspectRatio="none" width="100%" height="100%" overflow="visible" style="display: block;" viewBox="0 0 280 280" fill="none" xmlns="http://www.w3.org/2000/svg">
<g id="rocket-lunch 1" clip-path="url(#clip0_0_10)">
<path id="Vector" d="M180.833 70C164.757 70 151.667 83.09 151.667 99.1667C151.667 115.243 164.757 128.333 180.833 128.333C196.91 128.333 210 115.243 210 99.1667C210 83.09 196.91 70 180.833 70ZM180.833 116.667C171.185 116.667 163.333 108.815 163.333 99.1667C163.333 89.5183 171.185 81.6667 180.833 81.6667C190.482 81.6667 198.333 89.5183 198.333 99.1667C198.333 108.815 190.482 116.667 180.833 116.667ZM280 29.68C280 13.3117 266.677 -4.17233e-06 250.145 -4.17233e-06C189.945 1.715 141.703 26.4717 99.7733 77.525C80.8733 77.7467 62.0083 82.3317 45.1033 90.8133C25.0133 100.905 9.05333 116.118 2.39166 131.507C-1.79667 141.19 -0.688337 152.833 5.27333 161.898C10.745 170.217 19.2733 174.988 28.6767 174.988H58.3217C73.7917 174.988 85.5633 178.92 93.31 186.667C101.278 194.635 104.988 205.38 104.988 220.488V250.133C104.988 259.747 110.133 268.858 118.755 274.528C124.273 278.157 130.503 280.012 136.663 280.012C140.712 280.012 144.713 279.218 148.47 277.585C163.858 270.935 179.083 254.975 189.163 234.873C197.645 217.98 202.23 199.115 202.452 180.203C253.505 138.285 278.262 90.02 279.977 29.6683L280 29.68ZM15.0383 155.505C11.2117 149.672 10.4767 142.263 13.1133 136.138C18.7133 123.188 32.6317 110.133 50.3417 101.243C62.7783 95.0017 76.3933 91.0933 90.2533 89.7283C89.0283 91.3733 87.8033 93.0417 86.59 94.745C67.8883 120.82 53.2117 152.717 48.5333 163.333H28.6883C23.275 163.333 18.305 160.475 15.0383 155.505ZM178.768 229.647C169.867 247.368 156.823 261.275 143.873 266.875C138.11 269.383 130.958 268.555 125.183 264.775C119.782 261.217 116.678 255.885 116.678 250.133V230.382C127.447 225.925 159.25 212.053 185.267 193.387C186.958 192.173 188.627 190.948 190.283 189.723C188.918 203.583 185.01 217.21 178.768 229.647ZM178.465 183.925C156.613 199.593 129.722 212.065 116.632 217.723C116.153 200.935 111.207 188.055 101.582 178.418C92.1083 168.945 78.575 163.893 61.3317 163.368C67.3517 150.208 80.43 123.375 96.0867 101.535C138.752 42.0117 187.81 13.4517 250.32 11.6667C260.26 11.6667 268.333 19.7517 268.333 29.5167C266.548 92.19 237.988 141.248 178.453 183.925H178.465ZM20.2067 218.54C13.16 225.575 3.16166 250.063 0.361662 262.313C-0.758338 267.19 0.699996 272.218 4.235 275.753C6.98833 278.507 10.64 279.988 14.4317 279.988C15.5167 279.988 16.6017 279.872 17.6867 279.615C29.9367 276.815 54.4133 266.817 61.46 259.77C66.9783 254.263 70 246.937 70 239.143C70 231.35 66.9667 224.023 61.46 218.517C50.4583 207.503 31.22 207.503 20.2183 218.517L20.2067 218.54ZM53.2 251.533C48.6383 256.095 27.265 265.463 15.0733 268.252C13.7783 268.543 12.88 267.913 12.4833 267.505C12.075 267.097 11.4333 266.222 11.7367 264.915C14.525 252.723 23.8933 231.35 28.455 226.788C31.7567 223.487 36.155 221.667 40.8333 221.667C45.5117 221.667 49.8983 223.487 53.2117 226.788C56.525 230.09 58.3333 234.488 58.3333 239.167C58.3333 243.845 56.5133 248.232 53.2117 251.545L53.2 251.533Z" fill="var(--fill-0, #7B7B7B)" fill-opacity="0.03"/>
</g>
<defs>
<clipPath id="clip0_0_10">
<rect width="280" height="280" fill="white"/>
</clipPath>
</defs>
</svg>
