<svg preserveAspectRatio="none" width="100%" height="100%" overflow="visible" style="display: block;" viewBox="0 0 60 60" fill="none" xmlns="http://www.w3.org/2000/svg">
<g id="rocket-lunch 2" clip-path="url(#clip0_0_12)">
<path id="Vector" d="M38.75 15C35.305 15 32.5 17.805 32.5 21.25C32.5 24.695 35.305 27.5 38.75 27.5C42.195 27.5 45 24.695 45 21.25C45 17.805 42.195 15 38.75 15ZM38.75 25C36.6825 25 35 23.3175 35 21.25C35 19.1825 36.6825 17.5 38.75 17.5C40.8175 17.5 42.5 19.1825 42.5 21.25C42.5 23.3175 40.8175 25 38.75 25ZM60 6.36C60 2.8525 57.145 -8.9407e-07 53.6025 -8.9407e-07C40.7025 0.367499 30.365 5.6725 21.38 16.6125C17.33 16.66 13.2875 17.6425 9.665 19.46C5.36 21.6225 1.94 24.8825 0.512499 28.18C-0.385001 30.255 -0.147501 32.75 1.13 34.6925C2.3025 36.475 4.13 37.4975 6.145 37.4975H12.4975C15.8125 37.4975 18.335 38.34 19.995 40C21.7025 41.7075 22.4975 44.01 22.4975 47.2475V53.6C22.4975 55.66 23.6 57.6125 25.4475 58.8275C26.63 59.605 27.965 60.0025 29.285 60.0025C30.1525 60.0025 31.01 59.8325 31.815 59.4825C35.1125 58.0575 38.375 54.6375 40.535 50.33C42.3525 46.71 43.335 42.6675 43.3825 38.615C54.3225 29.6325 59.6275 19.29 59.995 6.3575L60 6.36ZM3.2225 33.3225C2.4025 32.0725 2.245 30.485 2.81 29.1725C4.01 26.3975 6.9925 23.6 10.7875 21.695C13.4525 20.3575 16.37 19.52 19.34 19.2275C19.0775 19.58 18.815 19.9375 18.555 20.3025C14.5475 25.89 11.4025 32.725 10.4 35H6.1475C4.9875 35 3.9225 34.3875 3.2225 33.3225ZM38.3075 49.21C36.4 53.0075 33.605 55.9875 30.83 57.1875C29.595 57.725 28.0625 57.5475 26.825 56.7375C25.6675 55.975 25.0025 54.8325 25.0025 53.6V49.3675C27.31 48.4125 34.125 45.44 39.7 41.44C40.0625 41.18 40.42 40.9175 40.775 40.655C40.4825 43.625 39.645 46.545 38.3075 49.21ZM38.2425 39.4125C33.56 42.77 27.7975 45.4425 24.9925 46.655C24.89 43.0575 23.83 40.2975 21.7675 38.2325C19.7375 36.2025 16.8375 35.12 13.1425 35.0075C14.4325 32.1875 17.235 26.4375 20.59 21.7575C29.7325 9.0025 40.245 2.8825 53.64 2.5C55.77 2.5 57.5 4.2325 57.5 6.325C57.1175 19.755 50.9975 30.2675 38.24 39.4125H38.2425ZM4.33 46.83C2.82 48.3375 0.677499 53.585 0.0774991 56.21C-0.162501 57.255 0.149999 58.3325 0.907499 59.09C1.4975 59.68 2.28 59.9975 3.0925 59.9975C3.325 59.9975 3.5575 59.9725 3.79 59.9175C6.415 59.3175 11.66 57.175 13.17 55.665C14.3525 54.485 15 52.915 15 51.245C15 49.575 14.35 48.005 13.17 46.825C10.8125 44.465 6.69 44.465 4.3325 46.825L4.33 46.83ZM11.4 53.9C10.4225 54.8775 5.8425 56.885 3.23 57.4825C2.9525 57.545 2.76 57.41 2.675 57.3225C2.5875 57.235 2.45 57.0475 2.515 56.7675C3.1125 54.155 5.12 49.575 6.0975 48.5975C6.805 47.89 7.7475 47.5 8.75 47.5C9.7525 47.5 10.6925 47.89 11.4025 48.5975C12.1125 49.305 12.5 50.2475 12.5 51.25C12.5 52.2525 12.11 53.1925 11.4025 53.9025L11.4 53.9Z" fill="var(--fill-0, #7B7B7B)"/>
</g>
<defs>
<clipPath id="clip0_0_12">
<rect width="60" height="60" fill="white"/>
</clipPath>
</defs>
</svg>
