<svg preserveAspectRatio="none" width="100%" height="100%" overflow="visible" style="display: block;" viewBox="0 0 60 60" fill="none" xmlns="http://www.w3.org/2000/svg">
<g id="money-bills 1" clip-path="url(#clip0_0_27)">
<path id="Vector" d="M51.25 7.5H16.25C11.425 7.5 7.5 11.425 7.5 16.25V36.25C7.5 41.075 11.425 45 16.25 45H51.25C56.075 45 60 41.075 60 36.25V16.25C60 11.425 56.075 7.5 51.25 7.5ZM57.5 36.25C57.5 39.7 54.7 42.5 51.25 42.5H16.25C12.8 42.5 10 39.7 10 36.25V16.25C10 12.8 12.8 10 16.25 10H51.25C54.7 10 57.5 12.8 57.5 16.25V36.25ZM47.5 51.25C47.5 51.95 46.95 52.5 46.25 52.5H11.25C5.05 52.5 -8.9407e-07 47.45 -8.9407e-07 41.25V21.25C-8.9407e-07 20.55 0.549999 20 1.25 20C1.95 20 2.5 20.55 2.5 21.25V41.25C2.5 46.075 6.425 50 11.25 50H46.25C46.95 50 47.5 50.55 47.5 51.25ZM33.75 17.5C28.925 17.5 25 21.425 25 26.25C25 31.075 28.925 35 33.75 35C38.575 35 42.5 31.075 42.5 26.25C42.5 21.425 38.575 17.5 33.75 17.5ZM33.75 32.5C30.3 32.5 27.5 29.7 27.5 26.25C27.5 22.8 30.3 20 33.75 20C37.2 20 40 22.8 40 26.25C40 29.7 37.2 32.5 33.75 32.5ZM20 17.5C20 18.875 18.875 20 17.5 20C16.125 20 15 18.875 15 17.5C15 16.125 16.125 15 17.5 15C18.875 15 20 16.125 20 17.5ZM20 35C20 36.375 18.875 37.5 17.5 37.5C16.125 37.5 15 36.375 15 35C15 33.625 16.125 32.5 17.5 32.5C18.875 32.5 20 33.625 20 35ZM52.5 17.5C52.5 18.875 51.375 20 50 20C48.625 20 47.5 18.875 47.5 17.5C47.5 16.125 48.625 15 50 15C51.375 15 52.5 16.125 52.5 17.5ZM52.5 35C52.5 36.375 51.375 37.5 50 37.5C48.625 37.5 47.5 36.375 47.5 35C47.5 33.625 48.625 32.5 50 32.5C51.375 32.5 52.5 33.625 52.5 35Z" fill="var(--fill-0, #7B7B7B)"/>
</g>
<defs>
<clipPath id="clip0_0_27">
<rect width="60" height="60" fill="white"/>
</clipPath>
</defs>
</svg>
