<svg preserveAspectRatio="none" width="100%" height="100%" overflow="visible" style="display: block;" viewBox="0 0 60 60" fill="none" xmlns="http://www.w3.org/2000/svg">
<g id="shield-check 1" clip-path="url(#clip0_0_7)">
<path id="Vector" d="M30 59.8725C29.8075 59.8725 29.6175 59.8275 29.44 59.74L28.3775 59.21C22.8925 56.465 4.9925 46.2325 4.9925 29.71L4.9975 16.345C4.9975 11.4875 8.095 7.195 12.7075 5.6675L29.6075 0.0625C29.8625 -0.0225 30.14 -0.0225 30.3925 0.0625L47.29 5.665C51.9025 7.195 55 11.4875 55 16.3425L54.9925 29.7075C54.9925 48.4525 37.0625 57.125 31.5675 59.3375L30.465 59.78C30.315 59.84 30.155 59.87 29.9975 59.87L30 59.8725ZM30 2.5675L13.495 8.04C9.9075 9.23 7.5 12.5675 7.5 16.345L7.495 29.71C7.495 44.7975 24.335 54.395 29.4975 56.975L30.0575 57.255L30.6375 57.0225C35.765 54.96 52.495 46.8925 52.495 29.7125L52.5025 16.3475C52.5025 12.57 50.0925 9.2325 46.5075 8.0425L30 2.5675Z" fill="var(--fill-0, #7B7B7B)"/>
<path id="Vector_2" d="M27.4525 37.5C25.85 37.5 24.2475 36.89 23.0275 35.67L15.3875 28.4075C14.8875 27.9325 14.8675 27.14 15.3425 26.64C15.8175 26.1425 16.6075 26.12 17.11 26.595L24.7725 33.88C26.2575 35.3625 28.635 35.365 30.0975 33.9025L44.1275 20.3525C44.6275 19.875 45.42 19.89 45.895 20.385C46.375 20.88 46.3625 21.6725 45.865 22.1525L31.8475 35.6875C30.64 36.895 29.045 37.5025 27.45 37.5025L27.4525 37.5Z" fill="var(--fill-0, #7B7B7B)"/>
</g>
<defs>
<clipPath id="clip0_0_7">
<rect width="60" height="60" fill="white"/>
</clipPath>
</defs>
</svg>
