<svg preserveAspectRatio="none" width="100%" height="100%" overflow="visible" style="display: block;" viewBox="0 0 280 280" fill="none" xmlns="http://www.w3.org/2000/svg">
<g id="bank 2" clip-path="url(#clip0_0_14)">
<path id="Vector" d="M280 274.167C280 277.387 277.387 280 274.167 280H5.83333C2.61333 280 4.87132e-10 277.387 4.87132e-10 274.167C4.87132e-10 270.947 2.61333 268.333 5.83333 268.333H274.167C277.387 268.333 280 270.947 280 274.167ZM2.81167 90.755C-1.41167 82.6817 -0.863333 73.4417 4.28167 66.045C9.065 59.15 26.9733 49.84 26.9967 49.8283L113.925 6.32333C130.212 -2.17 149.765 -2.18167 166.168 6.37L255.43 51.625L255.488 51.6483C255.488 51.6483 271.297 59.6517 275.73 66.0217C280.863 73.4183 281.412 82.6583 277.188 90.7317C272.58 99.5167 263.445 104.977 253.33 104.977H245V221.643H262.5C265.72 221.643 268.333 224.257 268.333 227.477C268.333 230.697 265.72 233.31 262.5 233.31H17.5C14.28 233.31 11.6667 230.697 11.6667 227.477C11.6667 224.257 14.28 221.643 17.5 221.643H35V104.977H26.67C16.555 104.977 7.42 99.5167 2.81167 90.7317V90.755ZM46.6667 221.667H93.3567L93.765 105H46.6667V221.667ZM105.432 105L105.023 221.667H175V105H105.432ZM233.333 105H186.667V221.667H233.333V105ZM13.16 85.3417C15.7383 90.265 20.9067 93.3333 26.67 93.3333H253.33C259.093 93.3333 264.273 90.2767 266.84 85.3417C269.045 81.1183 268.788 76.51 266.14 72.695C263.398 68.7517 258.055 66.0567 252.887 63.4433L160.825 16.7533C154.292 13.3467 147.128 11.6433 139.988 11.6433C132.848 11.6433 125.72 13.335 119.222 16.7183L32.2233 60.2583C25.6317 63.6883 16.9983 68.1683 13.8717 72.695C11.2117 76.5217 10.955 81.13 13.16 85.3417Z" fill="var(--fill-0, #7B7B7B)" fill-opacity="0.03"/>
</g>
<defs>
<clipPath id="clip0_0_14">
<rect width="280" height="280" fill="white"/>
</clipPath>
</defs>
</svg>
