<svg preserveAspectRatio="none" width="100%" height="100%" overflow="visible" style="display: block;" viewBox="0 0 60 60" fill="none" xmlns="http://www.w3.org/2000/svg">
<g id="bank 1" clip-path="url(#clip0_0_16)">
<path id="Vector" d="M60 58.75C60 59.44 59.44 60 58.75 60H1.25C0.56 60 0 59.44 0 58.75C0 58.06 0.56 57.5 1.25 57.5H58.75C59.44 57.5 60 58.06 60 58.75ZM0.6025 19.4475C-0.3025 17.7175 -0.185 15.7375 0.9175 14.1525C1.9425 12.675 5.78 10.68 5.785 10.6775L24.4125 1.355C27.9025 -0.465 32.0925 -0.4675 35.6075 1.365L54.735 11.0625L54.7475 11.0675C54.7475 11.0675 58.135 12.7825 59.085 14.1475C60.185 15.7325 60.3025 17.7125 59.3975 19.4425C58.41 21.325 56.4525 22.495 54.285 22.495H52.5V47.495H56.25C56.94 47.495 57.5 48.055 57.5 48.745C57.5 49.435 56.94 49.995 56.25 49.995H3.75C3.06 49.995 2.5 49.435 2.5 48.745C2.5 48.055 3.06 47.495 3.75 47.495H7.5V22.495H5.715C3.5475 22.495 1.59 21.325 0.6025 19.4425V19.4475ZM10 47.5H20.005L20.0925 22.5H10V47.5ZM22.5925 22.5L22.505 47.5H37.5V22.5H22.5925ZM50 22.5H40V47.5H50V22.5ZM2.82 18.2875C3.3725 19.3425 4.48 20 5.715 20H54.285C55.52 20 56.63 19.345 57.18 18.2875C57.6525 17.3825 57.5975 16.395 57.03 15.5775C56.4425 14.7325 55.2975 14.155 54.19 13.595L34.4625 3.59C33.0625 2.86 31.5275 2.495 29.9975 2.495C28.4675 2.495 26.94 2.8575 25.5475 3.5825L6.905 12.9125C5.4925 13.6475 3.6425 14.6075 2.9725 15.5775C2.4025 16.3975 2.3475 17.385 2.82 18.2875Z" fill="var(--fill-0, #7B7B7B)"/>
</g>
<defs>
<clipPath id="clip0_0_16">
<rect width="60" height="60" fill="white"/>
</clipPath>
</defs>
</svg>
