<svg preserveAspectRatio="none" width="100%" height="100%" overflow="visible" style="display: block;" viewBox="0 0 60 60" fill="none" xmlns="http://www.w3.org/2000/svg">
<g id="priority-arrows 1" clip-path="url(#clip0_0_23)">
<path id="Vector" d="M48.75 0H11.25C5.0475 0 0 5.0475 0 11.25V48.75C0 54.9525 5.0475 60 11.25 60H48.75C54.9525 60 60 54.9525 60 48.75V11.25C60 5.0475 54.9525 0 48.75 0ZM57.5 48.75C57.5 53.575 53.575 57.5 48.75 57.5H11.25C6.425 57.5 2.5 53.575 2.5 48.75V11.25C2.5 6.425 6.425 2.5 11.25 2.5H48.75C53.575 2.5 57.5 6.425 57.5 11.25V48.75ZM29.635 25.58C29.39 25.825 29.07 25.945 28.75 25.945C28.43 25.945 28.11 25.8225 27.865 25.58L20.5175 18.2325C20.36 18.075 20.185 17.9425 20 17.835V43.75C20 44.44 19.44 45 18.75 45C18.06 45 17.5 44.44 17.5 43.75V17.835C17.315 17.9425 17.14 18.0725 16.9825 18.2325L9.635 25.58C9.1475 26.0675 8.355 26.0675 7.8675 25.58C7.38 25.0925 7.38 24.3 7.8675 23.8125L15.215 16.465C16.065 15.615 17.5 15 18.75 15C20 15 21.435 15.615 22.285 16.465L29.6325 23.8125C30.12 24.3 30.12 25.0925 29.6325 25.58H29.635ZM52.135 34.4175C52.6225 34.905 52.6225 35.6975 52.135 36.185L44.7875 43.5325C43.8425 44.4775 42.5875 44.9975 41.2525 44.9975C39.9175 44.9975 38.6625 44.4775 37.7175 43.5325L30.37 36.185C29.8825 35.6975 29.8825 34.905 30.37 34.4175C30.8575 33.93 31.65 33.93 32.1375 34.4175L39.485 41.765C39.6425 41.9225 39.8175 42.055 40.0025 42.1625V16.25C40.0025 15.56 40.5625 15 41.2525 15C41.9425 15 42.5025 15.56 42.5025 16.25V42.165C42.6875 42.0575 42.8625 41.9275 43.02 41.7675L50.3675 34.42C50.855 33.9325 51.6475 33.93 52.135 34.4175Z" fill="var(--fill-0, #7B7B7B)"/>
</g>
<defs>
<clipPath id="clip0_0_23">
<rect width="60" height="60" fill="white"/>
</clipPath>
</defs>
</svg>
