<svg width="50" height="50" viewBox="0 0 50 50" fill="none" xmlns="http://www.w3.org/2000/svg">
  <g clip-path="url(#clip0_497_4572)">
    <path d="M50.001 26.0854C49.4281 39.4958 38.4447 50 25.001 50C16.5843 50 8.96141 45.8667 4.29891 38.9354C4.23016 39.1417 4.16766 39.3542 4.16766 39.5833V48.9583C4.16766 49.5333 3.701 50 3.126 50C2.551 50 2.08433 49.5333 2.08433 48.9583V39.5833C2.08433 37.2854 3.95308 35.4167 6.251 35.4167H15.626C16.201 35.4167 16.6677 35.8833 16.6677 36.4583C16.6677 37.0333 16.201 37.5 15.626 37.5H6.251C6.12183 37.5 6.00933 37.55 5.8885 37.5729C10.1489 44.05 17.2052 47.9167 25.001 47.9167C37.326 47.9167 47.3927 38.2875 47.9177 25.9979C47.9427 25.4375 48.4031 25 48.9593 25C48.9739 25 48.9885 25 49.0031 25C49.576 25.025 50.0239 25.5104 50.001 26.0854ZM25.001 2.08333C32.7968 2.08333 39.8552 5.95 44.1135 12.4271C43.9906 12.45 43.8781 12.5 43.751 12.5H34.376C33.801 12.5 33.3343 12.9667 33.3343 13.5417C33.3343 14.1167 33.801 14.5833 34.376 14.5833H43.751C46.0489 14.5833 47.9177 12.7146 47.9177 10.4167V1.04167C47.9177 0.466667 47.451 0 46.876 0C46.301 0 45.8343 0.466667 45.8343 1.04167V10.4167C45.8343 10.6458 45.7718 10.8583 45.7031 11.0646C41.0406 4.13333 33.4177 0 25.001 0C11.5572 0 0.573914 10.5042 0.00099767 23.9146C-0.0240023 24.4896 0.423914 24.975 0.998914 25C1.01558 25 1.03016 25 1.04266 25C1.59891 25 2.05933 24.5625 2.08433 24.0021C2.60933 11.7125 12.676 2.08333 25.001 2.08333ZM18.3822 42.5479C20.4947 43.3458 22.7218 43.75 25.001 43.75C35.3406 43.75 43.751 35.3375 43.751 25C43.751 23.1208 43.4739 21.2667 42.926 19.4854C42.7593 18.9354 42.1843 18.625 41.6239 18.7958C41.0739 18.9667 40.7656 19.5479 40.9364 20.0979C41.4218 21.6792 41.6697 23.3292 41.6697 25C41.6697 34.1896 34.1927 41.6667 25.0031 41.6667C22.976 41.6667 20.9968 41.3083 19.1218 40.6C18.5781 40.3958 17.9802 40.6687 17.7781 41.2062C17.5739 41.7437 17.8468 42.3458 18.3843 42.55L18.3822 42.5479ZM25.001 8.33333C27.0281 8.33333 29.0072 8.69167 30.8822 9.4C31.4239 9.60417 32.0239 9.33125 32.226 8.79375C32.4302 8.25625 32.1572 7.65417 31.6197 7.45C29.5072 6.65208 27.2802 6.24792 25.001 6.24792C14.6614 6.25 6.251 14.6625 6.251 25C6.251 26.8792 6.52808 28.7333 7.076 30.5146C7.21141 30.9625 7.626 31.25 8.07183 31.25C8.17391 31.25 8.276 31.2354 8.37808 31.2042C8.92808 31.0333 9.23641 30.4521 9.06558 29.9021C8.58016 28.3208 8.33225 26.6708 8.33225 25C8.33225 15.8104 15.8093 8.33333 24.9989 8.33333H25.001ZM23.2468 18.75H26.7552C27.9552 18.75 29.1677 19.3937 29.1677 20.8333C29.1677 21.4083 29.6343 21.875 30.2093 21.875C30.7843 21.875 31.251 21.4083 31.251 20.8333C31.251 18.4187 29.3614 16.6667 26.7552 16.6667H26.0427V15.625C26.0427 15.05 25.576 14.5833 25.001 14.5833C24.426 14.5833 23.9593 15.05 23.9593 15.625V16.6667H23.2468C20.7677 16.6667 18.751 18.6833 18.751 21.1625C18.751 23.3687 20.3322 25.2333 22.4906 25.5937L27.151 26.4583C28.3197 26.6542 29.1677 27.6542 29.1677 28.8375C29.1677 30.1687 28.0843 31.25 26.7552 31.25H23.2468C22.0468 31.25 20.8343 30.6062 20.8343 29.1667C20.8343 28.5917 20.3677 28.125 19.7927 28.125C19.2177 28.125 18.751 28.5917 18.751 29.1667C18.751 31.5812 20.6406 33.3333 23.2468 33.3333H23.9593V34.375C23.9593 34.95 24.426 35.4167 25.001 35.4167C25.576 35.4167 26.0427 34.95 26.0427 34.375V33.3333H26.7552C29.2343 33.3333 31.251 31.3167 31.251 28.8375C31.251 26.6312 29.6697 24.7667 27.5114 24.4062L22.851 23.5417C21.6822 23.3458 20.8343 22.3458 20.8343 21.1625C20.8343 19.8312 21.9177 18.75 23.2468 18.75Z" fill="#0051FF"/>
  </g>
  <defs>
    <clipPath id="clip0_497_4572">
      <rect width="50" height="50" fill="white"/>
    </clipPath>
  </defs>
</svg>
