<svg width="24" height="24" viewBox="0 0 24 24" fill="none" xmlns="http://www.w3.org/2000/svg">
<g clip-path="url(#clip0_12_1061)">
<path d="M23.147 9.471L22.36 8.4C21.8147 7.65793 21.1028 7.0542 20.2816 6.63736C19.4604 6.22052 18.5529 6.00222 17.632 6H6.383C5.48102 6.00236 4.59163 6.21176 3.78335 6.61209C2.97508 7.01241 2.2695 7.59296 1.721 8.309L0.900001 9.383C0.233483 10.2623 -0.0798908 11.3592 0.0215216 12.4579C0.122934 13.5566 0.631792 14.5776 1.448 15.32L9.438 23.027C10.1398 23.6528 11.0477 23.9979 11.988 23.996C12.9482 23.9941 13.874 23.638 14.588 22.996L22.524 15.363C23.3449 14.6361 23.8641 13.6283 23.9793 12.5379C24.0946 11.4476 23.7977 10.3535 23.147 9.471ZM20.747 9.578L21.534 10.652C21.6131 10.7619 21.6827 10.8783 21.742 11H16.951C16.8786 10.5211 16.7539 10.0516 16.579 9.6L15.939 8H17.632C18.2384 8.00115 18.8362 8.1445 19.3772 8.41856C19.9182 8.69261 20.3873 9.08973 20.747 9.578ZM11.99 20.088L9.221 13.818C9.12085 13.5528 9.0452 13.279 8.995 13H14.947C14.9051 13.2199 14.8462 13.4362 14.771 13.647L11.99 20.088ZM9.1 11C9.14182 10.8207 9.19425 10.6441 9.257 10.471L10.241 8H13.785L14.722 10.343C14.8043 10.5569 14.8711 10.7765 14.922 11H9.1ZM3.311 9.521C3.67256 9.04935 4.13754 8.66695 4.67012 8.40326C5.20271 8.13957 5.78871 8.00161 6.383 8H8.083L7.4 9.729C7.23522 10.1392 7.11226 10.5651 7.033 11H2.245C2.31359 10.8587 2.39635 10.7246 2.492 10.6L3.311 9.521ZM2.811 13.854C2.55013 13.6174 2.34517 13.3257 2.211 13H6.983C7.04932 13.5388 7.17923 14.0678 7.37 14.576L10.197 20.976L2.811 13.854ZM13.771 21.014L16.625 14.4C16.7907 13.9474 16.906 13.4779 16.969 13H21.8C21.6585 13.3433 21.4422 13.6507 21.167 13.9L13.771 21.014Z" fill="#0051FF"/>
<path d="M12 4C12.2652 4 12.5196 3.89464 12.7071 3.70711C12.8946 3.51957 13 3.26522 13 3V1C13 0.734784 12.8946 0.48043 12.7071 0.292893C12.5196 0.105357 12.2652 0 12 0C11.7348 0 11.4804 0.105357 11.2929 0.292893C11.1054 0.48043 11 0.734784 11 1V3C11 3.26522 11.1054 3.51957 11.2929 3.70711C11.4804 3.89464 11.7348 4 12 4Z" fill="#0051FF"/>
<path d="M16.553 3.89999C16.6711 3.95935 16.7997 3.99473 16.9315 4.00406C17.0634 4.0134 17.1957 3.99652 17.321 3.9544C17.4462 3.91228 17.5619 3.84575 17.6613 3.75865C17.7607 3.67156 17.8418 3.56563 17.9 3.44699L18.9 1.44699C19.0186 1.20962 19.038 0.93488 18.9539 0.683207C18.8699 0.431533 18.6894 0.223542 18.452 0.104991C18.2146 -0.0135612 17.9399 -0.0329631 17.6882 0.0510532C17.4365 0.13507 17.2286 0.315622 17.11 0.55299L16.11 2.55299C16.0503 2.67045 16.0144 2.79856 16.0043 2.92995C15.9943 3.06133 16.0103 3.19341 16.0515 3.31858C16.0926 3.44376 16.1581 3.55956 16.2442 3.65934C16.3303 3.75912 16.4352 3.8409 16.553 3.89999Z" fill="#0051FF"/>
<path d="M6.105 3.44699C6.22355 3.68502 6.43181 3.86621 6.68395 3.9507C6.93609 4.03518 7.21147 4.01604 7.4495 3.89749C7.68753 3.77894 7.86872 3.57068 7.9532 3.31854C8.03769 3.0664 8.01855 2.79102 7.9 2.55299L6.9 0.55299C6.8413 0.435457 6.76002 0.330637 6.66081 0.244515C6.5616 0.158392 6.4464 0.0926539 6.32178 0.0510532C6.07011 -0.0329631 5.79537 -0.0135612 5.558 0.104991C5.32063 0.223542 5.14008 0.431533 5.05606 0.683207C4.97205 0.93488 4.99145 1.20962 5.11 1.44699L6.105 3.44699Z" fill="#0051FF"/>
</g>
<defs>
<clipPath id="clip0_12_1061">
<rect width="24" height="24" fill="white"/>
</clipPath>
</defs>
</svg>
