<svg width="24" height="24" viewBox="0 0 24 24" fill="none" xmlns="http://www.w3.org/2000/svg">
<g clip-path="url(#clip0_12_1053)">
<path d="M13.5 16H10.5C9.397 16 8.5 16.897 8.5 18V19C8.5 20.103 9.397 21 10.5 21H11V22C10.447 22 10 22.448 10 23C10 23.552 10.447 24 11 24H13C13.553 24 14 23.552 14 23C14 22.448 13.553 22 13 22V21H13.5C14.603 21 15.5 20.103 15.5 19V18C15.5 16.897 14.603 16 13.5 16ZM10.5 19V18H13.5V19H10.5ZM4 15C4.553 15 5 14.552 5 14C5 13.724 5.225 13.5 5.5 13.5H11V14C11 14.552 11.447 15 12 15C12.553 15 13 14.552 13 14V13.5H18.5C18.775 13.5 19 13.724 19 14C19 14.552 19.447 15 20 15C20.553 15 21 14.552 21 14C21 12.622 19.879 11.5 18.5 11.5H13V10H14.049C16.238 10 17.831 8.841 18.108 7.049C18.36 5.416 17.444 3.817 15.923 3.217C15.538 1.277 13.781 -0.113 11.786 0.00599956C9.663 0.117 8 1.946 8 4.17C6.634 4.651 5.813 6.015 6.036 7.468C6.258 8.911 7.578 10 9.107 10H11V11.5H5.5C4.121 11.5 3 12.622 3 14C3 14.552 3.447 15 4 15ZM9.107 8C8.565 8 8.085 7.633 8.012 7.164C7.924 6.593 8.296 6.167 8.708 6.042C9.48 5.81 9.999 5 9.999 4C9.999 2.86 10.953 2.055 11.996 2C12.96 2 13.797 2.689 13.968 3.643C14.082 4.29 14.538 4.835 15.158 5.065C15.736 5.279 16.256 5.924 16.13 6.743C16.011 7.518 15.213 7.999 14.048 7.999H9.107V8ZM22 16H19C17.897 16 17 16.897 17 18V19C17 20.103 17.897 21 19 21H19.5V22C18.947 22 18.5 22.448 18.5 23C18.5 23.552 18.947 24 19.5 24H21.5C22.053 24 22.5 23.552 22.5 23C22.5 22.448 22.053 22 21.5 22V21H22C23.103 21 24 20.103 24 19V18C24 16.897 23.103 16 22 16ZM19 19V18H22V19H19ZM5 16H2C0.897 16 0 16.897 0 18V19C0 20.103 0.897 21 2 21H2.5V22C1.947 22 1.5 22.448 1.5 23C1.5 23.552 1.947 24 2.5 24H4.5C5.053 24 5.5 23.552 5.5 23C5.5 22.448 5.053 22 4.5 22V21H5C6.103 21 7 20.103 7 19V18C7 16.897 6.103 16 5 16ZM2 19V18H5V19H2Z" fill="#0051FF"/>
</g>
<defs>
<clipPath id="clip0_12_1053">
<rect width="24" height="24" fill="white"/>
</clipPath>
</defs>
</svg>
