<svg width="24" height="24" viewBox="0 0 24 24" fill="none" xmlns="http://www.w3.org/2000/svg">
<g clip-path="url(#clip0_12_1057)">
<path d="M23.694 19.261L21.298 16.865C20.819 16.386 20 16.725 20 17.402V18.826C19.204 18.344 18.407 16.862 17.744 15.617C16.754 13.757 15.819 12 14.25 12C12.681 12 11.746 13.757 10.756 15.617C9.954 17.124 8.956 19 8 19H7.24C7.907 17.607 8.485 15.565 9.13 13.283C9.822 10.834 11.11 6.275 11.979 5.997C12.045 6.017 12.658 6.282 13.683 9.319C13.859 9.841 14.426 10.123 14.95 9.947C15.473 9.77 15.755 9.203 15.578 8.679C14.758 6.248 13.757 3.999 12.001 3.999C9.788 3.999 8.737 7.32 7.206 12.738C6.64 14.741 6.013 16.947 5.405 18.192C5.155 17.858 5.001 17.448 5.001 16.999V4H6.56C7.237 4 7.576 3.181 7.097 2.702L4.7 0.306C4.292 -0.102 3.63 -0.102 3.222 0.306L0.825999 2.702C0.346999 3.181 0.685999 4 1.363 4H2.999V17C2.999 19.206 4.793 21 6.999 21H19.999V22.598C19.999 23.275 20.818 23.614 21.297 23.135L23.693 20.739C24.101 20.331 24.102 19.669 23.694 19.261ZM12.522 16.556C12.982 15.692 13.837 14.085 14.243 13.999C14.664 14.085 15.519 15.692 15.979 16.556C16.419 17.384 16.887 18.249 17.421 18.999H11.08C11.614 18.249 12.081 17.383 12.522 16.556Z" fill="#0051FF"/>
</g>
<defs>
<clipPath id="clip0_12_1057">
<rect width="24" height="24" fill="white"/>
</clipPath>
</defs>
</svg>
