<svg width="62" height="15" viewBox="0 0 62 15" fill="none" xmlns="http://www.w3.org/2000/svg">
<path d="M1 6.36395C0.447715 6.36395 0 6.81167 0 7.36395C0 7.91624 0.447715 8.36395 1 8.36395V7.36395V6.36395ZM61.7071 8.07106C62.0976 7.68054 62.0976 7.04737 61.7071 6.65685L55.3432 0.292885C54.9526 -0.0976396 54.3195 -0.0976396 53.9289 0.292885C53.5384 0.683409 53.5384 1.31657 53.9289 1.7071L59.5858 7.36395L53.9289 13.0208C53.5384 13.4113 53.5384 14.0445 53.9289 14.435C54.3195 14.8255 54.9526 14.8255 55.3432 14.435L61.7071 8.07106ZM1 7.36395V8.36395H61V7.36395V6.36395H1V7.36395Z" fill="white"/>
</svg>
