<svg width="24" height="24" viewBox="0 0 24 24" fill="none" xmlns="http://www.w3.org/2000/svg">
<g clip-path="url(#clip0_90_175)">
<path d="M23.9999 11.5C23.9975 10.8258 23.8428 10.1608 23.5474 9.55476C23.252 8.94871 22.8235 8.41722 22.2939 7.99998C23.0266 7.4224 23.5607 6.63052 23.8218 5.73482C24.0829 4.83912 24.0578 3.88426 23.7502 3.00347C23.4426 2.12267 22.8677 1.35985 22.1058 0.821431C21.3439 0.283012 20.4329 -0.00415797 19.4999 -1.68701e-05H4.49991C3.56695 -0.00415797 2.65596 0.283012 1.89403 0.821431C1.1321 1.35985 0.557225 2.12267 0.249606 3.00347C-0.0580129 3.88426 -0.0830352 4.83912 0.17803 5.73482C0.439095 6.63052 0.973227 7.4224 1.70591 7.99998C1.17446 8.41556 0.744619 8.9467 0.449 9.55313C0.153381 10.1596 -0.000254973 10.8253 -0.000254973 11.5C-0.000254973 12.1746 0.153381 12.8404 0.449 13.4468C0.744619 14.0533 1.17446 14.5844 1.70591 15C0.973227 15.5776 0.439095 16.3694 0.17803 17.2651C-0.0830352 18.1608 -0.0580129 19.1157 0.249606 19.9965C0.557225 20.8773 1.1321 21.6401 1.89403 22.1785C2.65596 22.717 3.56695 23.0041 4.49991 23H19.4999C20.4329 23.0041 21.3439 22.717 22.1058 22.1785C22.8677 21.6401 23.4426 20.8773 23.7502 19.9965C24.0578 19.1157 24.0829 18.1608 23.8218 17.2651C23.5607 16.3694 23.0266 15.5776 22.2939 15C22.8235 14.5827 23.252 14.0513 23.5474 13.4452C23.8428 12.8392 23.9975 12.1742 23.9999 11.5ZM1.99991 4.49998C1.99991 3.83694 2.26331 3.20106 2.73215 2.73222C3.20099 2.26338 3.83687 1.99998 4.49991 1.99998H4.99991V2.99998C4.99991 3.2652 5.10527 3.51955 5.29281 3.70709C5.48034 3.89463 5.7347 3.99998 5.99991 3.99998C6.26513 3.99998 6.51948 3.89463 6.70702 3.70709C6.89456 3.51955 6.99991 3.2652 6.99991 2.99998V1.99998H8.99991V2.99998C8.99991 3.2652 9.10527 3.51955 9.29281 3.70709C9.48034 3.89463 9.7347 3.99998 9.99991 3.99998C10.2651 3.99998 10.5195 3.89463 10.707 3.70709C10.8946 3.51955 10.9999 3.2652 10.9999 2.99998V1.99998H19.4999C20.163 1.99998 20.7988 2.26338 21.2677 2.73222C21.7365 3.20106 21.9999 3.83694 21.9999 4.49998C21.9999 5.16302 21.7365 5.79891 21.2677 6.26775C20.7988 6.73659 20.163 6.99998 19.4999 6.99998H4.49991C3.83687 6.99998 3.20099 6.73659 2.73215 6.26775C2.26331 5.79891 1.99991 5.16302 1.99991 4.49998ZM21.9999 18.5C21.9999 19.163 21.7365 19.7989 21.2677 20.2677C20.7988 20.7366 20.163 21 19.4999 21H4.49991C3.83687 21 3.20099 20.7366 2.73215 20.2677C2.26331 19.7989 1.99991 19.163 1.99991 18.5C1.99991 17.8369 2.26331 17.2011 2.73215 16.7322C3.20099 16.2634 3.83687 16 4.49991 16H4.99991V17C4.99991 17.2652 5.10527 17.5196 5.29281 17.7071C5.48034 17.8946 5.7347 18 5.99991 18C6.26513 18 6.51948 17.8946 6.70702 17.7071C6.89456 17.5196 6.99991 17.2652 6.99991 17V16H8.99991V17C8.99991 17.2652 9.10527 17.5196 9.29281 17.7071C9.48034 17.8946 9.7347 18 9.99991 18C10.2651 18 10.5195 17.8946 10.707 17.7071C10.8946 17.5196 10.9999 17.2652 10.9999 17V16H19.4999C20.163 16 20.7988 16.2634 21.2677 16.7322C21.7365 17.2011 21.9999 17.8369 21.9999 18.5ZM4.49991 14C3.83687 14 3.20099 13.7366 2.73215 13.2677C2.26331 12.7989 1.99991 12.163 1.99991 11.5C1.99991 10.8369 2.26331 10.2011 2.73215 9.73222C3.20099 9.26338 3.83687 8.99998 4.49991 8.99998H4.99991V9.99998C4.99991 10.2652 5.10527 10.5196 5.29281 10.7071C5.48034 10.8946 5.7347 11 5.99991 11C6.26513 11 6.51948 10.8946 6.70702 10.7071C6.89456 10.5196 6.99991 10.2652 6.99991 9.99998V8.99998H8.99991V9.99998C8.99991 10.2652 9.10527 10.5196 9.29281 10.7071C9.48034 10.8946 9.7347 11 9.99991 11C10.2651 11 10.5195 10.8946 10.707 10.7071C10.8946 10.5196 10.9999 10.2652 10.9999 9.99998V8.99998H19.4999C20.163 8.99998 20.7988 9.26338 21.2677 9.73222C21.7365 10.2011 21.9999 10.8369 21.9999 11.5C21.9999 12.163 21.7365 12.7989 21.2677 13.2677C20.7988 13.7366 20.163 14 19.4999 14H4.49991Z" fill="#0051FF"/>
</g>
<defs>
<clipPath id="clip0_90_175">
<rect width="24" height="24" fill="white"/>
</clipPath>
</defs>
</svg>
