<svg width="188" height="206" viewBox="0 0 188 206" fill="none" xmlns="http://www.w3.org/2000/svg">
<g filter="url(#filter0_d_90_113)">
<path d="M82.7411 10.4542C88.4779 7.18193 95.5221 7.18194 101.259 10.4542L166.606 47.7282C172.415 51.0418 176 57.2057 176 63.8812V138.119C176 144.794 172.415 150.958 166.606 154.272L101.259 191.546C95.5221 194.818 88.4779 194.818 82.7411 191.546L17.3939 154.272C11.5847 150.958 8 144.794 8 138.119V63.8812C8 57.2057 11.5847 51.0417 17.3939 47.7282L82.7411 10.4542Z" fill="white"/>
<path d="M83.3584 15.887C88.7128 12.811 95.2874 12.811 100.642 15.887L161.632 50.9245C167.054 54.0393 170.4 59.8334 170.4 66.1083V135.892C170.4 142.167 167.054 147.961 161.632 151.076L100.642 186.113C95.2874 189.189 88.7128 189.189 83.3584 186.113L22.3678 151.076C16.9458 147.961 13.6001 142.167 13.6001 135.892V66.1083C13.6001 59.8334 16.9458 54.0393 22.3678 50.9245L83.3584 15.887Z" fill="url(#paint0_linear_90_113)"/>
</g>
<path d="M47.728 103V99.688L59.608 81.436H47.8V77.8H64.612V81.112L52.66 99.364H64.684V103H47.728ZM68.9818 103V77.8H85.2538V81.292H73.3018V88.528H84.1738V91.948H73.3018V99.508H85.2538V103H68.9818ZM89.7943 103V77.8H98.8303C100.822 77.8 102.466 78.148 103.762 78.844C105.082 79.516 106.054 80.428 106.678 81.58C107.326 82.708 107.65 83.992 107.65 85.432C107.65 86.776 107.338 88.024 106.714 89.176C106.09 90.328 105.118 91.252 103.798 91.948C102.478 92.644 100.786 92.992 98.7223 92.992H94.1143V103H89.7943ZM102.934 103L97.6423 91.876H102.322L107.866 103H102.934ZM94.1143 89.788H98.5423C100.15 89.788 101.326 89.404 102.07 88.636C102.838 87.844 103.222 86.812 103.222 85.54C103.222 84.292 102.85 83.296 102.106 82.552C101.362 81.784 100.174 81.4 98.5423 81.4H94.1143V89.788ZM123.603 103.432C121.179 103.432 119.031 102.892 117.159 101.812C115.311 100.708 113.859 99.184 112.803 97.24C111.747 95.272 111.219 92.992 111.219 90.4C111.219 87.832 111.747 85.576 112.803 83.632C113.859 81.664 115.311 80.128 117.159 79.024C119.031 77.92 121.179 77.368 123.603 77.368C126.075 77.368 128.247 77.92 130.119 79.024C131.991 80.128 133.443 81.664 134.475 83.632C135.507 85.576 136.023 87.832 136.023 90.4C136.023 92.992 135.507 95.272 134.475 97.24C133.443 99.184 131.991 100.708 130.119 101.812C128.247 102.892 126.075 103.432 123.603 103.432ZM123.639 99.544C125.247 99.544 126.651 99.184 127.851 98.464C129.051 97.72 129.975 96.664 130.623 95.296C131.271 93.928 131.595 92.296 131.595 90.4C131.595 88.504 131.271 86.872 130.623 85.504C129.975 84.136 129.051 83.092 127.851 82.372C126.651 81.628 125.247 81.256 123.639 81.256C122.031 81.256 120.627 81.628 119.427 82.372C118.227 83.092 117.291 84.136 116.619 85.504C115.971 86.872 115.647 88.504 115.647 90.4C115.647 92.296 115.971 93.928 116.619 95.296C117.291 96.664 118.227 97.72 119.427 98.464C120.627 99.184 122.031 99.544 123.639 99.544Z" fill="black"/>
<path d="M71.32 133V118.6H74.12V133H71.32ZM76.8097 133V122.92H79.6097V133H76.8097ZM78.2097 121.62C77.703 121.62 77.2897 121.473 76.9697 121.18C76.6497 120.873 76.4897 120.5 76.4897 120.06C76.4897 119.607 76.6497 119.233 76.9697 118.94C77.2897 118.647 77.703 118.5 78.2097 118.5C78.7164 118.5 79.1297 118.647 79.4497 118.94C79.7697 119.233 79.9297 119.607 79.9297 120.06C79.9297 120.5 79.7697 120.873 79.4497 121.18C79.1297 121.473 78.7164 121.62 78.2097 121.62ZM82.2966 133V122.92H84.7566L84.9766 124.26C85.2966 123.78 85.7166 123.4 86.2366 123.12C86.7699 122.827 87.3832 122.68 88.0766 122.68C88.5699 122.68 89.0166 122.747 89.4166 122.88C89.8166 123.013 90.1699 123.207 90.4766 123.46C90.7966 123.713 91.0566 124.027 91.2566 124.4C91.6432 123.867 92.1366 123.447 92.7366 123.14C93.3366 122.833 93.9899 122.68 94.6966 122.68C95.5766 122.68 96.3099 122.86 96.8966 123.22C97.4832 123.567 97.9232 124.08 98.2166 124.76C98.5232 125.427 98.6766 126.247 98.6766 127.22V133H95.8966V127.46C95.8966 126.687 95.7432 126.093 95.4366 125.68C95.1299 125.253 94.6566 125.04 94.0166 125.04C93.5899 125.04 93.2166 125.147 92.8966 125.36C92.5766 125.56 92.3232 125.853 92.1366 126.24C91.9632 126.627 91.8766 127.093 91.8766 127.64V133H89.0966V127.46C89.0966 126.687 88.9432 126.093 88.6366 125.68C88.3299 125.253 87.8432 125.04 87.1766 125.04C86.7766 125.04 86.4166 125.147 86.0966 125.36C85.7766 125.56 85.5299 125.853 85.3566 126.24C85.1832 126.627 85.0966 127.093 85.0966 127.64V133H82.2966ZM101.282 133V122.92H104.082V133H101.282ZM102.682 121.62C102.176 121.62 101.762 121.473 101.442 121.18C101.122 120.873 100.962 120.5 100.962 120.06C100.962 119.607 101.122 119.233 101.442 118.94C101.762 118.647 102.176 118.5 102.682 118.5C103.189 118.5 103.602 118.647 103.922 118.94C104.242 119.233 104.402 119.607 104.402 120.06C104.402 120.5 104.242 120.873 103.922 121.18C103.602 121.473 103.189 121.62 102.682 121.62ZM111.369 133C110.649 133 110.016 132.887 109.469 132.66C108.936 132.433 108.523 132.06 108.229 131.54C107.936 131.02 107.789 130.313 107.789 129.42V125.26H106.049V122.92H107.789L108.089 120.14H110.589V122.92H113.209V125.26H110.589V129.44C110.589 129.88 110.683 130.187 110.869 130.36C111.069 130.533 111.403 130.62 111.869 130.62H113.189V133H111.369Z" fill="black"/>
<defs>
<filter id="filter0_d_90_113" x="0" y="0" width="188" height="206" filterUnits="userSpaceOnUse" color-interpolation-filters="sRGB">
<feFlood flood-opacity="0" result="BackgroundImageFix"/>
<feColorMatrix in="SourceAlpha" type="matrix" values="0 0 0 0 0 0 0 0 0 0 0 0 0 0 0 0 0 0 127 0" result="hardAlpha"/>
<feOffset dx="2" dy="2"/>
<feGaussianBlur stdDeviation="5"/>
<feComposite in2="hardAlpha" operator="out"/>
<feColorMatrix type="matrix" values="0 0 0 0 0 0 0 0 0 0 0 0 0 0 0 0 0 0 0.1 0"/>
<feBlend mode="normal" in2="BackgroundImageFix" result="effect1_dropShadow_90_113"/>
<feBlend mode="normal" in="SourceGraphic" in2="effect1_dropShadow_90_113" result="shape"/>
</filter>
<linearGradient id="paint0_linear_90_113" x1="128.655" y1="168.09" x2="53.1316" y2="32.4258" gradientUnits="userSpaceOnUse">
<stop stop-color="white"/>
<stop offset="1" stop-color="#F1F1F1"/>
</linearGradient>
</defs>
</svg>
