<svg width="237" height="260" viewBox="0 0 237 260" fill="none" xmlns="http://www.w3.org/2000/svg">
<g filter="url(#filter0_d_90_47)">
<path d="M104.541 11.1667C111.951 6.94443 121.049 6.94443 128.459 11.1667L212.866 59.2622C220.37 63.5377 225 71.4912 225 80.1047V175.895C225 184.509 220.37 192.462 212.866 196.738L128.459 244.833C121.049 249.056 111.951 249.056 104.541 244.833L20.1338 196.738C12.6302 192.462 8 184.509 8 175.895V80.1047C8 71.4912 12.6302 63.5377 20.1338 59.2622L104.541 11.1667Z" fill="white"/>
<path d="M105.338 18.1767C112.254 14.2078 120.746 14.2078 127.662 18.1767L206.442 63.3864C213.445 67.4055 217.767 74.8818 217.767 82.9785V173.022C217.767 181.118 213.445 188.595 206.442 192.614L127.662 237.823C120.746 241.792 112.254 241.792 105.338 237.823L26.5583 192.614C19.555 188.595 15.2334 181.118 15.2334 173.022V82.9785C15.2334 74.8818 19.555 67.4055 26.5583 63.3864L105.338 18.1767Z" fill="url(#paint0_linear_90_47)"/>
<path d="M149.06 105.732L150.64 104.152L150.687 104.2C150.961 104.474 151.285 104.691 151.643 104.839C152.001 104.988 152.384 105.064 152.772 105.064C153.159 105.064 153.542 104.988 153.9 104.839C154.258 104.691 154.583 104.474 154.856 104.2L157.297 101.759C157.571 101.485 157.788 101.16 157.937 100.802C158.085 100.445 158.161 100.061 158.161 99.6739C158.161 99.2866 158.085 98.9031 157.937 98.5454C157.788 98.1876 157.571 97.8625 157.297 97.5888L150.897 91.1884C150.336 90.6524 149.589 90.3534 148.813 90.3534C148.036 90.3534 147.29 90.6524 146.728 91.1884L144.287 93.6292C144.013 93.9029 143.796 94.2279 143.648 94.5857C143.499 94.9435 143.423 95.327 143.423 95.7143C143.423 96.1016 143.499 96.4851 143.648 96.8429C143.796 97.2006 144.013 97.5257 144.287 97.7994L144.334 97.8456L142.666 99.5136C136.965 95.0369 130.174 92.1598 122.992 91.1781V86.3251H126.151C127.094 86.3242 127.997 85.9492 128.664 85.2826C129.331 84.6159 129.706 83.712 129.707 82.7692V78.7473C129.706 77.8045 129.331 76.9006 128.664 76.234C127.997 75.5673 127.094 75.1924 126.151 75.1914H108.699C107.756 75.1924 106.852 75.5674 106.186 76.234C105.519 76.9006 105.144 77.8045 105.143 78.7473V82.7692C105.144 83.712 105.519 84.6159 106.186 85.2825C106.852 85.9492 107.756 86.3241 108.699 86.3251H111.859V91.1807C109.689 91.4699 107.546 91.9332 105.451 92.5664C104.975 92.7116 104.576 93.0398 104.343 93.4788C104.109 93.9178 104.059 94.4317 104.205 94.9074C104.35 95.3831 104.678 95.7816 105.117 96.0152C105.556 96.2489 106.07 96.2986 106.546 96.1534C112.854 94.2274 119.56 94.0102 125.98 95.524C132.4 97.0378 138.303 100.228 143.086 104.77C147.869 109.311 151.361 115.041 153.206 121.374C155.05 127.707 155.18 134.415 153.584 140.815C151.987 147.214 148.72 153.076 144.117 157.8C139.514 162.524 133.74 165.942 127.384 167.704C121.028 169.466 114.318 169.51 107.94 167.831C101.561 166.151 95.7429 162.809 91.0788 158.146C90.905 157.97 90.6983 157.831 90.4704 157.735C90.2426 157.64 89.9981 157.59 89.7511 157.59C89.5042 157.589 89.2595 157.637 89.0311 157.732C88.8028 157.826 88.5954 157.964 88.4207 158.139C88.2461 158.313 88.1076 158.521 88.0134 158.749C87.9192 158.978 87.871 159.222 87.8716 159.469C87.8722 159.716 87.9216 159.961 88.017 160.189C88.1124 160.416 88.2518 160.623 88.4274 160.797C95.8735 168.252 105.904 172.554 116.437 172.81C126.971 173.067 137.199 169.258 144.999 162.174C152.799 155.09 157.572 145.276 158.329 134.766C159.085 124.257 155.766 113.859 149.06 105.732ZM148.812 94.4065L154.08 99.6735L152.772 100.982L147.504 95.7148L148.812 94.4065ZM146.984 100.497L147.988 101.501L146.539 102.951C146.205 102.615 145.862 102.289 145.517 101.965L146.984 100.497ZM108.893 82.5751V78.9414H125.957V82.5751H108.893ZM115.609 90.8568V86.3251H119.242V90.8363C118.639 90.8098 118.035 90.7902 117.426 90.7902C116.818 90.7902 116.214 90.8303 115.609 90.8568Z" fill="black"/>
<path d="M141.783 156.009C148.191 149.581 151.79 140.874 151.789 131.797C151.789 122.721 148.19 114.014 141.781 107.586C141.757 107.56 141.749 107.526 141.724 107.5C141.698 107.475 141.664 107.467 141.638 107.443C135.212 101.03 126.504 97.4305 117.426 97.4351C115.363 97.4347 113.304 97.6189 111.273 97.9853C111.031 98.0291 110.8 98.1201 110.593 98.2533C110.386 98.3864 110.207 98.559 110.066 98.7613C109.926 98.9635 109.827 99.1914 109.775 99.432C109.722 99.6726 109.718 99.9211 109.762 100.163C109.806 100.406 109.897 100.637 110.03 100.844C110.163 101.051 110.336 101.23 110.538 101.37C110.74 101.511 110.968 101.61 111.209 101.662C111.449 101.714 111.698 101.719 111.94 101.675C113.134 101.468 114.34 101.333 115.551 101.269V104.202C115.551 104.699 115.748 105.176 116.1 105.528C116.451 105.879 116.928 106.077 117.426 106.077C117.923 106.077 118.4 105.879 118.752 105.528C119.103 105.176 119.301 104.699 119.301 104.202V101.28C126.105 101.691 132.575 104.374 137.673 108.899L135.614 110.959C135.438 111.133 135.299 111.34 135.203 111.568C135.108 111.795 135.058 112.04 135.058 112.287C135.057 112.534 135.105 112.779 135.2 113.007C135.294 113.235 135.432 113.443 135.607 113.617C135.782 113.792 135.989 113.93 136.217 114.025C136.446 114.119 136.69 114.167 136.937 114.166C137.184 114.166 137.429 114.116 137.657 114.021C137.884 113.926 138.091 113.786 138.265 113.611L140.325 111.551C144.85 116.649 147.533 123.12 147.944 129.924H145.023C144.526 129.924 144.049 130.122 143.698 130.474C143.346 130.825 143.148 131.302 143.148 131.799C143.148 132.297 143.346 132.774 143.698 133.125C144.049 133.477 144.526 133.674 145.023 133.674H147.944C147.533 140.479 144.85 146.949 140.325 152.048L138.265 149.987C137.913 149.639 137.437 149.444 136.941 149.446C136.446 149.447 135.971 149.645 135.621 149.995C135.271 150.345 135.073 150.82 135.072 151.315C135.071 151.811 135.265 152.286 135.614 152.639L137.674 154.699C132.575 159.224 126.105 161.907 119.301 162.318V159.396C119.301 158.899 119.103 158.422 118.752 158.07C118.4 157.719 117.923 157.521 117.426 157.521C116.929 157.521 116.452 157.719 116.1 158.07C115.748 158.422 115.551 158.899 115.551 159.396V162.336C109.311 161.983 103.333 159.706 98.4396 155.818C98.2465 155.666 98.0252 155.552 97.7884 155.485C97.5516 155.418 97.3038 155.398 97.0593 155.427C96.8148 155.455 96.5784 155.532 96.3634 155.652C96.1484 155.772 95.9592 155.933 95.8065 156.126C95.6538 156.319 95.5407 156.54 95.4735 156.777C95.4063 157.014 95.3864 157.262 95.415 157.506C95.4436 157.751 95.52 157.987 95.64 158.202C95.7599 158.417 95.9211 158.606 96.1141 158.759C102.705 163.972 110.979 166.586 119.369 166.107C127.758 165.628 135.68 162.088 141.635 156.158C141.662 156.133 141.697 156.125 141.724 156.098C141.75 156.072 141.759 156.037 141.783 156.009Z" fill="black"/>
<path d="M133.427 115.798C133.253 115.624 133.047 115.485 132.819 115.391C132.592 115.297 132.348 115.248 132.102 115.248C131.855 115.248 131.612 115.297 131.384 115.391C131.157 115.485 130.95 115.624 130.776 115.798L120.266 126.308C119.391 125.842 118.417 125.594 117.426 125.588C116.197 125.587 114.996 125.952 113.975 126.634C112.953 127.317 112.157 128.287 111.687 129.422C111.217 130.556 111.094 131.805 111.333 133.01C111.573 134.215 112.164 135.322 113.033 136.191C113.901 137.059 115.008 137.651 116.213 137.891C117.418 138.131 118.667 138.008 119.802 137.538C120.937 137.068 121.907 136.272 122.59 135.25C123.272 134.229 123.637 133.028 123.637 131.799C123.63 130.809 123.383 129.834 122.917 128.959L133.427 118.449C133.601 118.275 133.74 118.068 133.834 117.841C133.928 117.614 133.977 117.37 133.977 117.123C133.977 116.877 133.928 116.633 133.834 116.406C133.74 116.179 133.601 115.972 133.427 115.798ZM117.426 134.26C117.021 134.261 116.622 134.161 116.265 133.97C115.908 133.78 115.603 133.504 115.378 133.168C115.153 132.831 115.014 132.444 114.974 132.041C114.934 131.638 114.995 131.232 115.149 130.858C115.304 130.483 115.549 130.153 115.862 129.896C116.175 129.639 116.547 129.464 116.944 129.385C117.341 129.306 117.751 129.326 118.139 129.444C118.526 129.561 118.879 129.773 119.165 130.059C119.509 130.403 119.744 130.843 119.839 131.32C119.934 131.797 119.886 132.292 119.699 132.742C119.513 133.191 119.198 133.576 118.793 133.846C118.388 134.116 117.912 134.261 117.426 134.26Z" fill="black"/>
<path d="M95.9197 101.185H84.082C83.5848 101.185 83.1078 100.987 82.7562 100.636C82.4046 100.284 82.207 99.8073 82.207 99.31C82.207 98.8127 82.4046 98.3358 82.7562 97.9842C83.1078 97.6325 83.5848 97.435 84.082 97.435H95.9197C96.417 97.435 96.8939 97.6325 97.2456 97.9842C97.5972 98.3358 97.7947 98.8127 97.7947 99.31C97.7947 99.8073 97.5972 100.284 97.2456 100.636C96.8939 100.987 96.417 101.185 95.9197 101.185Z" fill="black"/>
<path d="M78.0288 101.185H74.2349C73.7376 101.185 73.2607 100.987 72.909 100.636C72.5574 100.284 72.3599 99.8073 72.3599 99.31C72.3599 98.8127 72.5574 98.3358 72.909 97.9842C73.2607 97.6325 73.7376 97.435 74.2349 97.435H78.0288C78.526 97.435 79.003 97.6325 79.3546 97.9842C79.7062 98.3358 79.9038 98.8127 79.9038 99.31C79.9038 99.8073 79.7062 100.284 79.3546 100.636C79.003 100.987 78.526 101.185 78.0288 101.185Z" fill="black"/>
<path d="M101.702 113.53H70.3491C69.8518 113.53 69.3749 113.332 69.0233 112.981C68.6717 112.629 68.4741 112.152 68.4741 111.655C68.4741 111.158 68.6717 110.681 69.0233 110.329C69.3749 109.978 69.8518 109.78 70.3491 109.78H101.702C102.2 109.78 102.676 109.978 103.028 110.329C103.38 110.681 103.577 111.158 103.577 111.655C103.577 112.152 103.38 112.629 103.028 112.981C102.676 113.332 102.2 113.53 101.702 113.53Z" fill="black"/>
<path d="M88.2021 125.875H55.4409C54.9436 125.875 54.4667 125.677 54.1151 125.326C53.7635 124.974 53.5659 124.497 53.5659 124C53.5659 123.503 53.7635 123.026 54.1151 122.674C54.4667 122.323 54.9436 122.125 55.4409 122.125H88.2021C88.6994 122.125 89.1763 122.323 89.528 122.674C89.8796 123.026 90.0771 123.503 90.0771 124C90.0771 124.497 89.8796 124.974 89.528 125.326C89.1763 125.677 88.6994 125.875 88.2021 125.875Z" fill="black"/>
<path d="M97.9067 125.875H94.3838C93.8865 125.875 93.4096 125.677 93.058 125.326C92.7063 124.974 92.5088 124.497 92.5088 124C92.5088 123.503 92.7063 123.026 93.058 122.674C93.4096 122.323 93.8865 122.125 94.3838 122.125H97.9067C98.404 122.125 98.8809 122.323 99.2326 122.674C99.5842 123.026 99.7817 123.503 99.7817 124C99.7817 124.497 99.5842 124.974 99.2326 125.326C98.8809 125.677 98.404 125.875 97.9067 125.875Z" fill="black"/>
<path d="M105.135 138.22H77.3511C76.8538 138.22 76.3769 138.022 76.0252 137.671C75.6736 137.319 75.4761 136.842 75.4761 136.345C75.4761 135.848 75.6736 135.371 76.0252 135.019C76.3769 134.668 76.8538 134.47 77.3511 134.47H105.135C105.633 134.47 106.11 134.668 106.461 135.019C106.813 135.371 107.01 135.848 107.01 136.345C107.01 136.842 106.813 137.319 106.461 137.671C106.11 138.022 105.633 138.22 105.135 138.22Z" fill="black"/>
<path d="M69.4446 150.565H66.1011C65.6038 150.565 65.1269 150.367 64.7752 150.016C64.4236 149.664 64.2261 149.187 64.2261 148.69C64.2261 148.193 64.4236 147.716 64.7752 147.364C65.1269 147.013 65.6038 146.815 66.1011 146.815H69.4446C69.9419 146.815 70.4188 147.013 70.7704 147.364C71.122 147.716 71.3196 148.193 71.3196 148.69C71.3196 149.187 71.122 149.664 70.7704 150.016C70.4188 150.367 69.9419 150.565 69.4446 150.565Z" fill="black"/>
<path d="M97.9069 150.565H75.4106C74.9134 150.565 74.4365 150.367 74.0848 150.016C73.7332 149.664 73.5356 149.187 73.5356 148.69C73.5356 148.193 73.7332 147.716 74.0848 147.364C74.4365 147.013 74.9134 146.815 75.4106 146.815H97.9069C98.4042 146.815 98.8811 147.013 99.2327 147.364C99.5844 147.716 99.7819 148.193 99.7819 148.69C99.7819 149.187 99.5844 149.664 99.2327 150.016C98.8811 150.367 98.4042 150.565 97.9069 150.565Z" fill="black"/>
</g>
<defs>
<filter id="filter0_d_90_47" x="0" y="0" width="237" height="260" filterUnits="userSpaceOnUse" color-interpolation-filters="sRGB">
<feFlood flood-opacity="0" result="BackgroundImageFix"/>
<feColorMatrix in="SourceAlpha" type="matrix" values="0 0 0 0 0 0 0 0 0 0 0 0 0 0 0 0 0 0 127 0" result="hardAlpha"/>
<feOffset dx="2" dy="2"/>
<feGaussianBlur stdDeviation="5"/>
<feComposite in2="hardAlpha" operator="out"/>
<feColorMatrix type="matrix" values="0 0 0 0 0 0 0 0 0 0 0 0 0 0 0 0 0 0 0.1 0"/>
<feBlend mode="normal" in2="BackgroundImageFix" result="effect1_dropShadow_90_47"/>
<feBlend mode="normal" in="SourceGraphic" in2="effect1_dropShadow_90_47" result="shape"/>
</filter>
<linearGradient id="paint0_linear_90_47" x1="163.846" y1="214.567" x2="66.4499" y2="39.431" gradientUnits="userSpaceOnUse">
<stop stop-color="white"/>
<stop offset="1" stop-color="#F1F1F1"/>
</linearGradient>
</defs>
</svg>
