<svg width="161" height="175" viewBox="0 0 161 175" fill="none" xmlns="http://www.w3.org/2000/svg">
<g filter="url(#filter0_d_108_15758)">
<path d="M70.1241 11.5396C74.7731 8.8923 80.4818 8.89231 85.1308 11.5396L138.088 41.695C142.796 44.3758 145.701 49.3625 145.701 54.7631V114.823C145.701 120.223 142.796 125.21 138.088 127.891L85.1308 158.046C80.4817 160.694 74.7731 160.694 70.124 158.046L17.167 127.891C12.4592 125.21 9.5542 120.223 9.5542 114.823V54.7631C9.5542 49.3625 12.4592 44.3758 17.167 41.695L70.1241 11.5396Z" fill="white"/>
<path d="M70.6244 15.9348C74.9635 13.4464 80.2916 13.4464 84.6307 15.9349L134.057 44.2809C138.451 46.8008 141.163 51.4884 141.163 56.5649V113.021C141.163 118.098 138.451 122.785 134.057 125.305L84.6307 153.651C80.2916 156.14 74.9635 156.14 70.6244 153.651L21.1978 125.305C16.8039 122.785 14.0925 118.098 14.0925 113.021V56.5649C14.0925 51.4884 16.8039 46.8008 21.1978 44.2809L70.6244 15.9348Z" fill="url(#paint0_linear_108_15758)"/>
</g>
<path d="M90.4661 60.6837V64.0426H94.8091L77.0306 81.8211L70.3128 75.1034L54.0105 91.4057L56.3852 93.7804L70.3128 79.8528L77.0306 86.5706L97.1838 66.4173V70.7603H100.543V60.6837H90.4661Z" fill="black"/>
<path d="M56.1819 95.9519L53.5183 98.6155V107.708H66.9538V98.6155L64.2902 95.9519H56.1819ZM63.5949 104.349H56.8772V100.006L57.5725 99.3108H62.8997L63.5949 100.006V104.349Z" fill="black"/>
<path d="M72.9763 89.2342L70.3127 91.8978V107.708H83.7483V91.8978L81.0847 89.2342H72.9763ZM80.3894 104.349H73.6716V93.2883L74.3669 92.593H79.6941L80.3894 93.2883V104.349Z" fill="black"/>
<path d="M89.7705 79.1575L87.1069 81.8211V107.708H100.542V81.8211L97.8789 79.1575H89.7705ZM97.1836 104.349H90.4658V83.2117L91.1611 82.5164H96.4883L97.1836 83.2117V104.349Z" fill="black"/>
<defs>
<filter id="filter0_d_108_15758" x="5.96046e-05" y="-1.43051e-06" width="160.032" height="174.363" filterUnits="userSpaceOnUse" color-interpolation-filters="sRGB">
<feFlood flood-opacity="0" result="BackgroundImageFix"/>
<feColorMatrix in="SourceAlpha" type="matrix" values="0 0 0 0 0 0 0 0 0 0 0 0 0 0 0 0 0 0 127 0" result="hardAlpha"/>
<feOffset dx="2.38854" dy="2.38854"/>
<feGaussianBlur stdDeviation="5.97134"/>
<feComposite in2="hardAlpha" operator="out"/>
<feColorMatrix type="matrix" values="0 0 0 0 0 0 0 0 0 0 0 0 0 0 0 0 0 0 0.1 0"/>
<feBlend mode="normal" in2="BackgroundImageFix" result="effect1_dropShadow_108_15758"/>
<feBlend mode="normal" in="SourceGraphic" in2="effect1_dropShadow_108_15758" result="shape"/>
</filter>
<linearGradient id="paint0_linear_108_15758" x1="107.332" y1="139.07" x2="46.2873" y2="29.2269" gradientUnits="userSpaceOnUse">
<stop stop-color="white"/>
<stop offset="1" stop-color="#F1F1F1"/>
</linearGradient>
</defs>
</svg>
