<svg width="134" height="146" viewBox="0 0 134 146" fill="none" xmlns="http://www.w3.org/2000/svg">
<g filter="url(#filter0_d_90_147)">
<path d="M58.7172 9.66252C62.61 7.44582 67.39 7.44583 71.2828 9.66253L115.626 34.9126C119.568 37.1573 122 41.3329 122 45.855V96.145C122 100.667 119.568 104.843 115.626 107.087L71.2828 132.337C67.39 134.554 62.61 134.554 58.7172 132.337L14.3744 107.087C10.4325 104.843 8 100.667 8 96.145V45.855C8 41.3329 10.4325 37.1573 14.3744 34.9126L58.7172 9.66252Z" fill="white"/>
<path d="M59.1358 13.3428C62.7691 11.2591 67.2305 11.2591 70.8638 13.3428L112.25 37.0779C115.929 39.1879 118.2 43.113 118.2 47.3637V94.6363C118.2 98.8871 115.929 102.812 112.25 104.922L70.8638 128.657C67.2305 130.741 62.7691 130.741 59.1358 128.657L17.7493 104.922C14.0701 102.812 11.7998 98.8871 11.7998 94.6363V47.3637C11.7998 43.113 14.0701 39.1879 17.7493 37.0779L59.1358 13.3428Z" fill="url(#paint0_linear_90_147)"/>
</g>
<path d="M74.0032 59.6337C74.3171 59.32 74.7428 59.1437 75.1867 59.1437C75.6306 59.1437 76.0563 59.32 76.3702 59.6337L79.1758 62.4393L81.3338 46.0447L64.9391 48.2026L67.7447 51.0084C67.9001 51.1638 68.0234 51.3483 68.1076 51.5514C68.1917 51.7545 68.235 51.9721 68.235 52.1919C68.235 52.4117 68.1917 52.6294 68.1076 52.8324C68.0234 53.0355 67.9001 53.22 67.7447 53.3754L55.1408 65.9793L58.7204 69.5587C59.0325 69.873 59.2073 70.2982 59.2065 70.7411C59.2058 71.184 59.0295 71.6085 58.7163 71.9217C58.4032 72.2349 57.9786 72.4112 57.5357 72.412C57.0928 72.4128 56.6677 72.2381 56.3533 71.926L51.5903 67.1629C51.2763 66.849 51.1 66.4232 51.1 65.9793C51.1 65.5353 51.2763 65.1096 51.5903 64.7956L64.1942 52.1918L60.1721 48.1694C59.9512 47.9485 59.7966 47.6702 59.7257 47.366C59.6548 47.0618 59.6704 46.7438 59.7708 46.448C59.8712 46.1522 60.0524 45.8904 60.2939 45.6922C60.5353 45.494 60.8274 45.3674 61.1371 45.3266L83.0594 42.441C83.314 42.4075 83.5728 42.433 83.8159 42.5155C84.059 42.598 84.2799 42.7354 84.4614 42.9169C84.6429 43.0985 84.7803 43.3193 84.8628 43.5624C84.9453 43.8055 84.9708 44.0644 84.9373 44.3189L82.0518 66.2413C82.0111 66.551 81.8844 66.8432 81.6863 67.0847C81.4881 67.3263 81.2263 67.5075 80.9305 67.608C80.6346 67.7084 80.3166 67.7241 80.0123 67.6531C79.7081 67.5822 79.4297 67.4275 79.2088 67.2066L75.1867 63.1844L55.9973 82.3661C55.6833 82.6799 55.2576 82.8562 54.8137 82.8562C54.3699 82.8562 53.9441 82.6799 53.6302 82.3661L50.8247 79.5606L48.6666 95.9551L65.0613 93.797L62.2557 90.9917C61.9418 90.6777 61.7655 90.252 61.7655 89.808C61.7655 89.3641 61.9418 88.9383 62.2557 88.6244L74.8598 76.0206L71.2778 72.4383C71.1218 72.283 70.9979 72.0985 70.9134 71.8953C70.8288 71.6921 70.7851 71.4742 70.7849 71.254C70.7847 71.0339 70.8278 70.8159 70.912 70.6125C70.9961 70.4091 71.1195 70.2243 71.2752 70.0687C71.4308 69.913 71.6156 69.7896 71.8191 69.7055C72.0225 69.6214 72.2405 69.5782 72.4606 69.5785C72.6807 69.5788 72.8986 69.6225 73.1018 69.7071C73.305 69.7916 73.4895 69.9155 73.6448 70.0715L78.4104 74.8371C78.5658 74.9925 78.6891 75.1771 78.7732 75.3801C78.8573 75.5832 78.9006 75.8009 78.9006 76.0207C78.9006 76.2405 78.8573 76.4581 78.7732 76.6612C78.6891 76.8643 78.5658 77.0488 78.4104 77.2042L65.8063 89.808L69.8285 93.8299C70.0494 94.0508 70.2041 94.3291 70.275 94.6334C70.3459 94.9376 70.3303 95.2557 70.2299 95.5515C70.1295 95.8474 69.9483 96.1092 69.7068 96.3074C69.4653 96.5056 69.1731 96.6323 68.8634 96.6731L46.941 99.5588C46.6865 99.5924 46.4276 99.5669 46.1845 99.4844C45.9414 99.4018 45.7206 99.2645 45.539 99.083C45.3575 98.9014 45.2202 98.6806 45.1376 98.4375C45.0551 98.1943 45.0296 97.9355 45.0632 97.681L47.9487 75.7586C47.9894 75.4488 48.116 75.1567 48.3142 74.9151C48.5123 74.6736 48.7741 74.4924 49.07 74.3919C49.3658 74.2915 49.6838 74.2758 49.9881 74.3467C50.2924 74.4177 50.5707 74.5723 50.7916 74.7933L54.8137 78.8154L74.0032 59.6337Z" fill="#0051FF"/>
<defs>
<filter id="filter0_d_90_147" x="0" y="0" width="134" height="146" filterUnits="userSpaceOnUse" color-interpolation-filters="sRGB">
<feFlood flood-opacity="0" result="BackgroundImageFix"/>
<feColorMatrix in="SourceAlpha" type="matrix" values="0 0 0 0 0 0 0 0 0 0 0 0 0 0 0 0 0 0 127 0" result="hardAlpha"/>
<feOffset dx="2" dy="2"/>
<feGaussianBlur stdDeviation="5"/>
<feComposite in2="hardAlpha" operator="out"/>
<feColorMatrix type="matrix" values="0 0 0 0 0 0 0 0 0 0 0 0 0 0 0 0 0 0 0.1 0"/>
<feBlend mode="normal" in2="BackgroundImageFix" result="effect1_dropShadow_90_147"/>
<feBlend mode="normal" in="SourceGraphic" in2="effect1_dropShadow_90_147" result="shape"/>
</filter>
<linearGradient id="paint0_linear_90_147" x1="89.8725" y1="116.448" x2="38.7576" y2="24.4727" gradientUnits="userSpaceOnUse">
<stop stop-color="white"/>
<stop offset="1" stop-color="#F1F1F1"/>
</linearGradient>
</defs>
</svg>
