<svg width="161" height="175" viewBox="0 0 161 175" fill="none" xmlns="http://www.w3.org/2000/svg">
<g filter="url(#filter0_d_108_15765)">
<path d="M70.1241 11.5396C74.7731 8.8923 80.4818 8.89231 85.1308 11.5396L138.088 41.695C142.796 44.3758 145.701 49.3625 145.701 54.7631V114.823C145.701 120.223 142.796 125.21 138.088 127.891L85.1308 158.046C80.4817 160.694 74.7731 160.694 70.124 158.046L17.167 127.891C12.4592 125.21 9.5542 120.223 9.5542 114.823V54.7631C9.5542 49.3625 12.4592 44.3758 17.167 41.695L70.1241 11.5396Z" fill="white"/>
<path d="M70.6244 15.9348C74.9635 13.4464 80.2916 13.4464 84.6307 15.9349L134.057 44.2809C138.451 46.8008 141.163 51.4884 141.163 56.5649V113.021C141.163 118.098 138.451 122.785 134.057 125.305L84.6307 153.651C80.2916 156.14 74.9635 156.14 70.6244 153.651L21.1978 125.305C16.8039 122.785 14.0925 118.098 14.0925 113.021V56.5649C14.0925 51.4884 16.8039 46.8008 21.1978 44.2809L70.6244 15.9348Z" fill="url(#paint0_linear_108_15765)"/>
</g>
<path d="M103.827 106.254L102.409 103.418C102.057 102.718 101.209 102.434 100.506 102.783C99.8049 103.134 99.521 103.986 99.8713 104.686L100.263 105.47H96.8854V79.9427H98.3036C99.0868 79.9427 99.7218 79.3077 99.7218 78.5245V67.179C99.7218 66.3958 99.0868 65.7608 98.3036 65.7608H96.8854V64.3426C96.8854 63.5594 96.2504 62.9244 95.4672 62.9244C94.684 62.9244 94.049 63.5594 94.049 64.3426V65.7608H92.6308C91.8476 65.7608 91.2126 66.3958 91.2126 67.179V78.5245C91.2126 79.3077 91.8476 79.9427 92.6308 79.9427H94.049V105.47H86.958V95.5428H88.3762C89.1594 95.5428 89.7944 94.9085 89.7944 94.1246V82.7791C89.7944 81.9959 89.1594 81.3609 88.3762 81.3609H86.958V79.9427C86.958 79.1595 86.323 78.5245 85.5398 78.5245C84.7566 78.5245 84.1216 79.1595 84.1216 79.9427V81.3609H82.7034C81.9203 81.3609 81.2853 81.9959 81.2853 82.7791V94.1246C81.2853 94.9085 81.9203 95.5428 82.7034 95.5428H84.1216V105.47H75.6125V96.961H77.0307C77.8139 96.961 78.4489 96.3267 78.4489 95.5428V84.1973C78.4489 83.4141 77.8139 82.7791 77.0307 82.7791H75.6125V81.3609C75.6125 80.5777 74.9775 79.9427 74.1943 79.9427C73.4111 79.9427 72.7761 80.5777 72.7761 81.3609V82.7791H71.3579C70.5747 82.7791 69.9397 83.4141 69.9397 84.1973V95.5428C69.9397 96.3267 70.5747 96.961 71.3579 96.961H72.7761V105.47H64.2669V101.216H65.6851C66.4683 101.216 67.1033 100.581 67.1033 99.7974V88.4519C67.1033 87.668 66.4683 87.0337 65.6851 87.0337H64.2669V85.6155C64.2669 84.8323 63.632 84.1973 62.8488 84.1973C62.0656 84.1973 61.4306 84.8323 61.4306 85.6155V87.0337H60.0124C59.2292 87.0337 58.5942 87.668 58.5942 88.4519V99.7974C58.5942 100.581 59.2292 101.216 60.0124 101.216H61.4306V105.47H57.176C56.3942 105.47 55.7578 104.834 55.7578 104.052V60.9647C55.7578 60.9647 56.5417 61.3567 56.5419 61.3568C57.2354 61.7034 58.097 61.4175 58.4446 60.7223C58.795 60.0216 58.5111 59.1698 57.8103 58.8194L54.9739 57.4012C54.575 57.2018 54.1041 57.2018 53.7053 57.4012L50.8689 58.8194C50.1681 59.1698 49.8842 60.0216 50.2346 60.7223C50.5843 61.4224 51.4353 61.707 52.1375 61.3567L52.9214 60.9647V104.052C52.9214 106.398 54.8299 108.307 57.176 108.307H100.263L99.8713 109.09C99.5209 109.791 99.8048 110.643 100.506 110.993C101.198 111.337 102.061 111.056 102.409 110.359L103.827 107.523C104.026 107.124 104.026 106.653 103.827 106.254ZM61.4306 89.8701H64.267V98.3792H61.4306V89.8701ZM72.7761 85.6155H75.6125V94.1247H72.7761V85.6155ZM84.1217 84.1973H86.958V92.7065H84.1217V84.1973ZM94.049 68.5972H96.8854V77.1064H94.049V68.5972Z" fill="#0051FF"/>
<path d="M69.2304 78.5245C75.0957 78.5245 79.8669 73.7534 79.8669 67.8881C79.8669 62.0228 75.0957 57.2516 69.2304 57.2516C63.3652 57.2516 58.594 62.0228 58.594 67.8881C58.594 73.7534 63.3652 78.5245 69.2304 78.5245ZM69.2304 65.0517H71.3577C72.1409 65.0517 72.7759 64.4167 72.7759 63.6335C72.7759 62.8503 72.1409 62.2153 71.3577 62.2153H70.6486V60.2236C74.2738 60.8931 77.0305 64.072 77.0305 67.8881C77.0305 71.7042 74.2738 74.8831 70.6486 75.5526V73.2603C71.8986 72.7116 72.7759 71.4655 72.7759 70.0154C72.7759 68.0605 71.1853 66.4699 69.2304 66.4699C68.8392 66.4699 68.5213 66.1521 68.5213 65.7608C68.5213 65.3696 68.8392 65.0517 69.2304 65.0517ZM67.8122 60.2236V62.5159C66.5623 63.0646 65.685 64.3107 65.685 65.7608C65.685 67.7157 67.2756 69.3063 69.2304 69.3063C69.6217 69.3063 69.9395 69.6241 69.9395 70.0154C69.9395 70.4066 69.6217 70.7245 69.2304 70.7245H67.1032C66.32 70.7245 65.685 71.3595 65.685 72.1427C65.685 72.9259 66.32 73.5609 67.1032 73.5609H67.8122V75.5526C64.187 74.8831 61.4304 71.7042 61.4304 67.8881C61.4304 64.072 64.187 60.8931 67.8122 60.2236Z" fill="#0051FF"/>
<defs>
<filter id="filter0_d_108_15765" x="5.96046e-05" y="-1.43051e-06" width="160.032" height="174.363" filterUnits="userSpaceOnUse" color-interpolation-filters="sRGB">
<feFlood flood-opacity="0" result="BackgroundImageFix"/>
<feColorMatrix in="SourceAlpha" type="matrix" values="0 0 0 0 0 0 0 0 0 0 0 0 0 0 0 0 0 0 127 0" result="hardAlpha"/>
<feOffset dx="2.38854" dy="2.38854"/>
<feGaussianBlur stdDeviation="5.97134"/>
<feComposite in2="hardAlpha" operator="out"/>
<feColorMatrix type="matrix" values="0 0 0 0 0 0 0 0 0 0 0 0 0 0 0 0 0 0 0.1 0"/>
<feBlend mode="normal" in2="BackgroundImageFix" result="effect1_dropShadow_108_15765"/>
<feBlend mode="normal" in="SourceGraphic" in2="effect1_dropShadow_108_15765" result="shape"/>
</filter>
<linearGradient id="paint0_linear_108_15765" x1="107.332" y1="139.07" x2="46.2873" y2="29.2269" gradientUnits="userSpaceOnUse">
<stop stop-color="white"/>
<stop offset="1" stop-color="#F1F1F1"/>
</linearGradient>
</defs>
</svg>
