<svg width="225" height="247" viewBox="0 0 225 247" fill="none" xmlns="http://www.w3.org/2000/svg">
<g filter="url(#filter0_d_108_15754)">
<path d="M98.815 12.4851C105.666 8.57714 114.079 8.57715 120.93 12.4851L198.972 57.0002C205.91 60.9575 210.191 68.3189 210.191 76.2912V164.951C210.191 172.923 205.91 180.285 198.972 184.242L120.93 228.757C114.079 232.665 105.666 232.665 98.815 228.757L20.7731 184.242C13.8353 180.285 9.5542 172.923 9.5542 164.951V76.2912C9.5542 68.3189 13.8353 60.9575 20.7731 57.0002L98.815 12.4851Z" fill="white"/>
<path d="M99.5523 18.9733C105.947 15.2998 113.799 15.2998 120.193 18.9733L193.032 60.8174C199.508 64.5373 203.503 71.457 203.503 78.951V162.291C203.503 169.785 199.508 176.705 193.032 180.425L120.193 222.269C113.799 225.942 105.947 225.942 99.5523 222.269L26.7131 180.425C20.2379 176.705 16.2422 169.785 16.2422 162.291V78.951C16.2422 71.457 20.2379 64.5373 26.7131 60.8174L99.5523 18.9733Z" fill="url(#paint0_linear_108_15754)"/>
</g>
<path fill-rule="evenodd" clip-rule="evenodd" d="M92.5308 124.103C101.504 124.103 108.804 116.802 108.804 107.829C108.804 99.1143 98.8392 83.5608 93.756 77.5503C93.4511 77.1898 93.003 76.9818 92.5308 76.9818C92.0586 76.9818 91.6104 77.1898 91.3055 77.5503C86.2223 83.5606 76.2573 99.1135 76.2573 107.829C76.2573 116.802 83.5576 124.103 92.5308 124.103ZM92.5308 81.141C97.6726 87.7722 105.594 100.976 105.594 107.829C105.594 115.032 99.7341 120.893 92.5308 120.893C85.3275 120.893 79.4669 115.032 79.4669 107.829C79.4669 100.976 87.389 87.7718 92.5308 81.141ZM81.2707 110.037C81.1066 109.166 81.6795 108.327 82.5506 108.162C83.4216 107.998 84.2607 108.571 84.4248 109.442C85.0181 112.591 87.4171 115.101 90.5368 115.836C91.3994 116.04 91.9338 116.904 91.7302 117.767C91.5561 118.506 90.8971 119.004 90.1697 119.004C90.0478 119.004 89.9238 118.99 89.7998 118.96C85.4466 117.934 82.0988 114.431 81.2707 110.037ZM95.0092 108.322C95.206 108.095 95.2722 107.848 95.2297 107.498C95.1805 107.094 95.0658 106.148 92.283 105.691C87.8995 104.971 87.1298 102.486 87.061 101.069C86.9483 98.7498 88.4927 96.8006 90.9262 96.1541V95.6429C90.9262 94.7567 91.6447 94.0381 92.531 94.0381C93.4172 94.0381 94.1358 94.7567 94.1358 95.6429V96.1396C95.7079 96.54 97.1845 97.5751 97.9708 99.4479C98.3141 100.265 97.9297 101.206 97.1125 101.549C96.2966 101.892 95.3546 101.508 95.0116 100.69C94.3528 99.1219 92.724 99.0335 91.866 99.2276C91.4758 99.3161 90.2076 99.6993 90.2666 100.914C90.2827 101.243 90.325 102.117 92.803 102.524C96.2258 103.086 98.1145 104.629 98.4158 107.111C98.5676 108.361 98.229 109.506 97.4366 110.422C96.6732 111.305 95.492 111.935 94.1356 112.213V112.668C94.1356 113.555 93.417 114.273 92.5308 114.273C91.6445 114.273 90.926 113.555 90.926 112.668V112.186C88.7932 111.685 87.1667 110.202 86.658 108.163C86.4438 107.303 86.967 106.432 87.8269 106.217C88.6867 106.004 89.5579 106.526 89.7723 107.386C90.1097 108.739 91.5448 109.188 92.6682 109.161C93.6547 109.138 94.5956 108.801 95.0092 108.322ZM145.95 71.6111C145.645 71.2506 145.196 71.0426 144.724 71.0426C144.252 71.0426 143.804 71.2506 143.499 71.6111C138.881 77.0724 129.827 91.2109 129.827 99.1468C129.827 107.361 136.51 114.044 144.725 114.044C152.939 114.044 159.622 107.361 159.622 99.1466C159.622 91.2109 150.568 77.0722 145.95 71.6111ZM144.724 110.834C138.28 110.834 133.036 105.591 133.036 99.1466C133.036 93.0227 140.076 81.2473 144.724 75.2081C149.373 81.2475 156.412 93.0227 156.412 99.1466C156.412 105.591 151.169 110.834 144.724 110.834ZM144.145 108.187C143.971 108.925 143.312 109.423 142.585 109.423C142.463 109.423 142.339 109.409 142.215 109.38C138.212 108.436 135.134 105.215 134.373 101.175C134.209 100.304 134.782 99.4646 135.653 99.3005C136.525 99.1366 137.363 99.7093 137.527 100.58C138.053 103.375 140.183 105.603 142.952 106.256C143.814 106.46 144.349 107.324 144.145 108.187ZM150.207 98.4776C150.349 99.6539 150.03 100.732 149.284 101.595C148.593 102.393 147.54 102.97 146.329 103.241V103.532C146.329 104.418 145.61 105.136 144.724 105.136C143.838 105.136 143.119 104.418 143.119 103.532V103.213C141.189 102.72 139.722 101.353 139.256 99.4848C139.042 98.6248 139.565 97.7538 140.425 97.5394C141.287 97.3252 142.156 97.8485 142.371 98.7083C142.655 99.8483 143.886 100.233 144.845 100.203C145.686 100.183 146.513 99.8916 146.856 99.4948C146.966 99.3681 147.061 99.2042 147.02 98.8644C146.98 98.532 146.885 97.7528 144.475 97.3571C140.398 96.6875 139.682 94.3571 139.617 93.0277C139.513 90.8881 140.908 89.0855 143.119 88.4518V88.1034C143.119 87.2171 143.838 86.4986 144.724 86.4986C145.61 86.4986 146.329 87.2171 146.329 88.1034V88.4372C147.752 88.8304 149.078 89.7904 149.792 91.4927C150.136 92.3098 149.751 93.2506 148.934 93.5936C148.117 93.9366 147.176 93.5525 146.833 92.7352C146.275 91.4059 144.887 91.3329 144.155 91.4983C143.83 91.572 142.775 91.8885 142.823 92.8721C142.834 93.1118 142.869 93.8407 144.995 94.1898C148.171 94.7116 149.924 96.1541 150.207 98.4776ZM121.439 138.314C129.957 138.314 136.887 131.385 136.887 122.867C136.887 114.62 127.469 99.9159 122.665 94.2353C122.36 93.8749 121.912 93.6668 121.44 93.6668C120.968 93.6668 120.519 93.8749 120.214 94.2353C115.41 99.9159 105.993 114.62 105.993 122.867C105.992 131.385 112.922 138.314 121.439 138.314ZM121.439 97.8297C126.285 104.106 133.677 116.452 133.677 122.867C133.677 129.615 128.187 135.104 121.439 135.104C114.691 135.104 109.202 129.615 109.202 122.867C109.202 116.452 116.594 104.106 121.439 97.8297ZM112.005 123.092C112.876 122.928 113.715 123.501 113.879 124.372C114.432 127.309 116.67 129.649 119.578 130.335C120.441 130.539 120.976 131.403 120.772 132.265C120.598 133.004 119.939 133.502 119.212 133.502C119.09 133.502 118.966 133.488 118.842 133.459C114.699 132.482 111.513 129.148 110.725 124.967C110.561 124.096 111.134 123.257 112.005 123.092ZM123.71 123.273C123.828 123.137 123.943 122.946 123.897 122.566C123.853 122.204 123.75 121.358 121.191 120.938C116.992 120.249 116.254 117.857 116.188 116.492C116.08 114.281 117.535 112.419 119.835 111.781V111.367C119.835 110.481 120.554 109.763 121.44 109.763C122.326 109.763 123.045 110.481 123.045 111.367V111.766C124.527 112.162 125.913 113.152 126.657 114.923C127 115.74 126.615 116.681 125.798 117.024C124.982 117.366 124.04 116.983 123.697 116.165C123.099 114.74 121.614 114.661 120.832 114.838C120.482 114.918 119.341 115.261 119.393 116.337C119.408 116.627 119.445 117.399 121.711 117.771C124.986 118.309 126.793 119.792 127.083 122.179C127.229 123.384 126.903 124.489 126.138 125.373C125.418 126.205 124.314 126.804 123.045 127.078V127.434C123.045 128.32 122.326 129.038 121.44 129.038C120.554 129.038 119.835 128.32 119.835 127.434V127.05C117.824 126.553 116.293 125.14 115.81 123.204C115.596 122.344 116.119 121.473 116.979 121.258C117.84 121.045 118.71 121.567 118.924 122.427C119.23 123.652 120.535 124.057 121.567 124.034C122.46 124.012 123.341 123.7 123.71 123.273ZM132.951 135.519L117.179 144.705C116.555 145.069 115.921 145.346 115.268 145.539C115.474 145.136 115.642 144.699 115.768 144.228C116.603 141.113 114.755 137.862 111.561 136.827C111.492 136.805 111.422 136.787 111.351 136.774C106.835 135.959 102.37 134.345 98.7821 133.048C97.5317 132.596 96.3506 132.169 95.3444 131.843C91.2293 130.508 87.529 132.149 84.4514 133.931L72.8965 140.621L71.8921 138.847C70.8257 136.962 68.4253 136.297 66.5403 137.363L62.1149 139.868C61.2043 140.383 60.548 141.225 60.2675 142.237C59.9867 143.25 60.1159 144.309 60.6314 145.22L73.6417 168.208C74.3633 169.483 75.6957 170.2 77.0658 170.2C77.7207 170.2 78.3839 170.037 78.9933 169.692L83.4187 167.187C84.3293 166.672 84.9856 165.83 85.2661 164.818C85.5469 163.805 85.4177 162.746 84.9022 161.835L83.6609 159.642L86.0859 158.242L106.205 163.633C107.338 163.937 108.465 164.088 109.573 164.088C111.815 164.088 113.981 163.47 115.961 162.251L144.585 144.626C147.284 142.964 148.145 138.782 146.39 135.852C145.54 134.432 142.059 130.214 132.951 135.519ZM82.1738 163.961C82.1439 164.068 82.0607 164.268 81.8384 164.394L77.413 166.899C77.1911 167.024 76.9769 166.992 76.8688 166.963C76.7608 166.933 76.561 166.849 76.4353 166.627L63.425 143.639C63.2994 143.417 63.3307 143.202 63.3608 143.095C63.3909 142.987 63.4739 142.787 63.6962 142.661L68.1216 140.157C68.2297 140.095 68.3493 140.067 68.4681 140.067C68.7204 140.067 68.9692 140.198 69.0993 140.428L82.1096 163.417C82.2352 163.638 82.2037 163.853 82.1738 163.961ZM142.902 141.893L114.279 159.518C112.059 160.884 109.622 161.226 107.036 160.533L86.2751 154.97C85.8643 154.86 85.4261 154.917 85.0574 155.13L82.0805 156.849L74.4774 143.415L86.0598 136.709C88.6488 135.21 91.4455 133.953 94.3542 134.896C95.3097 135.206 96.4132 135.605 97.6908 136.067C101.362 137.394 105.923 139.043 110.664 139.912C112.2 140.456 113.059 141.938 112.668 143.397C112.153 145.319 110.539 145.559 109.251 145.412C106.941 144.936 100.158 143 98.9787 142.684C98.1231 142.455 97.2429 142.962 97.0132 143.818C96.7837 144.674 97.292 145.554 98.148 145.784C99.3024 146.093 106.221 148.069 108.676 148.571C108.686 148.573 108.729 148.581 108.74 148.583L110.702 148.902C113.684 149.379 116.331 148.913 118.794 147.479L134.566 138.292C138.997 135.712 142.388 135.416 143.636 137.501C144.49 138.927 144.12 141.143 142.902 141.893ZM69.3044 144.418C69.4305 145.282 68.8329 146.084 67.9696 146.21C67.1062 146.336 66.3038 145.739 66.1776 144.875C66.0514 144.012 66.649 143.21 67.5124 143.083C68.3758 142.957 69.1782 143.555 69.3044 144.418Z" fill="black"/>
<defs>
<filter id="filter0_d_108_15754" x="5.96046e-05" y="-1.43051e-06" width="224.522" height="246.019" filterUnits="userSpaceOnUse" color-interpolation-filters="sRGB">
<feFlood flood-opacity="0" result="BackgroundImageFix"/>
<feColorMatrix in="SourceAlpha" type="matrix" values="0 0 0 0 0 0 0 0 0 0 0 0 0 0 0 0 0 0 127 0" result="hardAlpha"/>
<feOffset dx="2.38854" dy="2.38854"/>
<feGaussianBlur stdDeviation="5.97134"/>
<feComposite in2="hardAlpha" operator="out"/>
<feColorMatrix type="matrix" values="0 0 0 0 0 0 0 0 0 0 0 0 0 0 0 0 0 0 0.1 0"/>
<feBlend mode="normal" in2="BackgroundImageFix" result="effect1_dropShadow_108_15754"/>
<feBlend mode="normal" in="SourceGraphic" in2="effect1_dropShadow_108_15754" result="shape"/>
</filter>
<linearGradient id="paint0_linear_108_15754" x1="153.648" y1="200.744" x2="63.4534" y2="38.725" gradientUnits="userSpaceOnUse">
<stop stop-color="white"/>
<stop offset="1" stop-color="#F1F1F1"/>
</linearGradient>
</defs>
</svg>
