<svg width="24" height="24" viewBox="0 0 24 24" fill="none" xmlns="http://www.w3.org/2000/svg">
<g clip-path="url(#clip0_90_172)">
<path d="M6 11C6.552 11 7 11.447 7 12V15C7 15.553 6.552 16 6 16C5.448 16 5 15.553 5 15V12C5 11.447 5.448 11 6 11ZM9 8V15C9 15.553 9.448 16 10 16C10.552 16 11 15.553 11 15V8C11 7.447 10.552 7 10 7C9.448 7 9 7.447 9 8ZM13 11V15C13 15.553 13.447 16 14 16C14.553 16 15 15.553 15 15V11C15 10.447 14.553 10 14 10C13.447 10 13 10.447 13 11ZM18.315 6.733L21.355 7.239C21.729 7.301 22 7.621 22 8C22 8.552 21.552 9 21 9H18.732C18.376 9 18.044 8.809 17.865 8.499C17.59 8.021 16.979 7.855 16.499 8.135C16.021 8.411 15.857 9.023 16.135 9.501C16.669 10.426 17.665 11 18.733 11H19.001C19.001 11.553 19.448 12 20.001 12C20.554 12 21.001 11.553 21.001 11C22.655 11 24.001 9.654 24.001 8C24.001 6.641 23.027 5.49 21.686 5.267L18.646 4.761C18.272 4.699 18.001 4.379 18.001 4C18.001 3.448 18.449 3 19.001 3H21.269C21.625 3 21.957 3.191 22.136 3.501C22.411 3.979 23.021 4.143 23.502 3.865C23.98 3.589 24.144 2.977 23.866 2.499C23.332 1.574 22.336 1 21.268 1H21C21 0.447 20.553 0 20 0C19.447 0 19 0.447 19 1C17.346 1 16 2.346 16 4C16 5.359 16.974 6.51 18.315 6.733ZM23 13C22.447 13 22 13.447 22 14V15C22 16.654 20.654 18 19 18H5C3.346 18 2 16.654 2 15V7C2 5.346 3.346 4 5 4H13C13.553 4 14 3.553 14 3C14 2.447 13.553 2 13 2H5C2.243 2 0 4.243 0 7V15C0 17.757 2.243 20 5 20H11V22H7C6.448 22 6 22.447 6 23C6 23.553 6.448 24 7 24H17C17.553 24 18 23.553 18 23C18 22.447 17.553 22 17 22H13V20H19C21.757 20 24 17.757 24 15V14C24 13.447 23.553 13 23 13Z" fill="#0051FF"/>
</g>
<defs>
<clipPath id="clip0_90_172">
<rect width="24" height="24" fill="white"/>
</clipPath>
</defs>
</svg>
