<svg width="212" height="230" viewBox="0 0 212 230" fill="none" xmlns="http://www.w3.org/2000/svg">
<g filter="url(#filter0_d_12_1036)">
<path d="M93.4184 10.7709C99.9747 7.07637 108.025 7.07638 114.582 10.7709L189.264 52.8544C195.903 56.5955 200 63.5548 200 71.0916V154.908C200 162.445 195.903 169.404 189.264 173.146L114.582 215.229C108.025 218.924 99.9747 218.924 93.4184 215.229L18.7359 173.146C12.0968 169.404 8 162.445 8 154.908V71.0916C8 63.5548 12.0968 56.5955 18.7359 52.8544L93.4184 10.7709Z" fill="white"/>
<path d="M94.1238 16.9046C100.243 13.4318 107.757 13.4318 113.876 16.9046L183.58 56.4631C189.776 59.9798 193.6 66.5215 193.6 73.6061V152.394C193.6 159.478 189.776 166.02 183.58 169.537L113.876 209.095C107.757 212.568 100.243 212.568 94.1238 209.095L24.4202 169.537C18.2237 166.02 14.4 159.478 14.4 152.394V73.6061C14.4 66.5215 18.2237 59.9798 24.4202 56.4631L94.1238 16.9046Z" fill="url(#paint0_linear_12_1036)"/>
</g>
<path fill-rule="evenodd" clip-rule="evenodd" d="M84.8055 150.171L84.9253 149.956C84.6707 150.082 84.386 150.164 84.0827 150.164C83.0491 150.164 82.2102 149.333 82.2102 148.311C82.2102 147.284 83.0491 146.458 84.0827 146.458C85.0976 146.458 85.9177 147.254 85.9477 148.251C91.6363 151.298 98.0815 152.91 104.59 152.91C125.049 152.91 141.887 137.333 143.662 117.54C142.531 117.065 141.737 115.957 141.737 114.664C141.737 113.341 142.572 112.214 143.748 111.762C142.531 91.4313 125.439 75.2584 104.59 75.2584C94.1155 75.2584 84.5958 79.3461 77.5514 85.9909C77.7387 86.3911 77.851 86.8322 77.851 87.3028C77.851 89.0261 76.4429 90.4232 74.7015 90.4232C74.3345 90.4232 73.99 90.3491 73.6641 90.2342C68.4661 96.8198 65.3578 105.099 65.3578 114.082C65.3578 117.577 65.8296 121.035 66.7509 124.374C67.4175 124.655 67.8856 125.311 67.8856 126.075C67.8856 127.098 67.0468 127.928 66.0131 127.928C64.9795 127.928 64.1407 127.098 64.1407 126.075C64.1407 125.626 64.3054 125.222 64.5713 124.904C63.6051 121.394 63.1108 117.755 63.1108 114.082C63.1108 104.55 66.4176 95.771 71.9489 88.7963C71.7018 88.3516 71.5482 87.8476 71.5482 87.3028C71.5482 85.5795 72.9601 84.1824 74.7015 84.1824C75.1434 84.1824 75.5629 84.275 75.9449 84.4381C83.3974 77.3819 93.4864 73.0348 104.59 73.0348C126.674 73.0348 144.778 90.2009 146.002 111.755C147.189 112.203 148.04 113.33 148.04 114.664C148.04 116.032 147.145 117.18 145.909 117.603C144.1 138.594 126.266 155.133 104.59 155.133C97.6807 155.133 90.8387 153.417 84.8055 150.171ZM76.353 87.3028C76.353 86.3986 75.6115 85.6648 74.7015 85.6648C73.7877 85.6648 73.0462 86.3986 73.0462 87.3028C73.0462 88.2034 73.7877 88.9371 74.7015 88.9371C75.6115 88.9371 76.353 88.2034 76.353 87.3028ZM144.886 116.302C145.8 116.302 146.542 115.568 146.542 114.664C146.542 113.763 145.8 113.03 144.886 113.03C143.976 113.03 143.235 113.763 143.235 114.664C143.235 115.568 143.976 116.302 144.886 116.302Z" fill="black"/>
<path fill-rule="evenodd" clip-rule="evenodd" d="M139.509 146.261C139.692 146.658 139.801 147.091 139.801 147.555C139.801 149.278 138.389 150.675 136.648 150.675C136.123 150.675 135.636 150.534 135.202 150.312C126.907 157.186 116.23 161.333 104.59 161.333C92.7863 161.333 81.9783 157.064 73.6344 150.015C73.2375 150.197 72.7956 150.304 72.3274 150.304C70.5898 150.304 69.1779 148.907 69.1779 147.184C69.1779 146.765 69.264 146.365 69.4176 145.998C61.613 137.585 56.8419 126.375 56.8419 114.082C56.8419 89.9303 75.256 69.9625 98.9168 67.1756C99.2052 65.7451 100.478 64.6667 102.006 64.6667C103.415 64.6667 104.594 65.582 104.999 66.8421C112.294 66.9051 119.196 68.6024 125.368 71.5672C125.532 71.5178 125.703 71.4918 125.881 71.4894C126.933 71.4894 127.787 72.3343 127.787 73.3757C127.787 74.4134 126.933 75.2583 125.881 75.2583C124.832 75.2583 123.978 74.4134 123.978 73.3757C123.978 73.3708 123.978 73.3658 123.978 73.3609C118.174 70.6407 111.702 69.1064 104.875 69.062C104.381 70.1478 103.287 70.9038 102.006 70.9038C100.853 70.9038 99.8568 70.2849 99.3063 69.3696C76.6978 71.9711 59.0889 91.0236 59.0889 114.082C59.0889 125.741 63.5904 136.381 70.9642 144.386C71.3799 144.186 71.8368 144.067 72.3274 144.067C74.0688 144.067 75.4807 145.461 75.4807 147.184C75.4807 147.629 75.3833 148.047 75.2148 148.429C83.1504 155.085 93.4005 159.11 104.59 159.11C115.657 159.11 125.813 155.178 133.708 148.651C133.577 148.311 133.498 147.944 133.498 147.555C133.498 145.831 134.91 144.438 136.648 144.438C137.101 144.438 137.524 144.534 137.913 144.701C145.463 136.659 150.092 125.901 150.092 114.082C150.092 106.185 148.021 98.7579 144.396 92.2984L144.46 92.2354C143.448 92.1909 142.64 91.3719 142.64 90.3602C142.64 89.3188 143.493 88.4776 144.546 88.4776C145.594 88.4776 146.448 89.3188 146.448 90.3602C146.446 90.6295 146.392 90.8803 146.287 91.1125C150.133 97.9204 152.339 105.747 152.339 114.082C152.339 126.508 147.463 137.819 139.509 146.261ZM100.355 67.7834C100.355 68.6877 101.096 69.4214 102.006 69.4214C102.92 69.4214 103.662 68.6877 103.662 67.7834C103.662 66.8828 102.92 66.1491 102.006 66.1491C101.096 66.1491 100.355 66.8828 100.355 67.7834ZM73.9827 147.184C73.9827 146.283 73.2412 145.55 72.3274 145.55C71.4174 145.55 70.6759 146.283 70.6759 147.184C70.6759 148.088 71.4174 148.822 72.3274 148.822C73.2412 148.822 73.9827 148.088 73.9827 147.184ZM138.303 147.555C138.303 146.654 137.561 145.92 136.648 145.92C135.738 145.92 134.996 146.654 134.996 147.555C134.996 148.459 135.738 149.193 136.648 149.193C137.561 149.193 138.303 148.459 138.303 147.555Z" fill="black"/>
<path fill-rule="evenodd" clip-rule="evenodd" d="M72.5481 131.897C72.5481 131.204 72.784 130.57 73.1697 130.051C70.6756 125.259 69.2562 119.834 69.2562 114.082C69.2562 94.8037 85.105 79.1163 104.59 79.1163C111.657 79.1163 118.237 81.188 123.765 84.7346C124.266 84.4085 124.862 84.2158 125.506 84.2158C127.247 84.2158 128.659 85.6092 128.659 87.3325C128.659 87.6883 128.588 88.0255 128.476 88.3405C135.509 94.737 139.928 103.909 139.928 114.082C139.928 119.019 138.905 123.792 136.898 128.265C137.011 128.502 137.069 128.76 137.074 129.04C137.074 130.062 136.235 130.893 135.202 130.893C134.168 130.893 133.329 130.062 133.329 129.04C133.329 128.117 134.015 127.357 134.906 127.216C136.741 123.069 137.681 118.655 137.681 114.082C137.681 104.591 133.573 96.0341 127.03 90.049C126.577 90.2973 126.064 90.4529 125.506 90.4529C123.768 90.4529 122.356 89.0558 122.356 87.3325C122.356 87.062 122.401 86.8025 122.469 86.5505C117.308 83.2596 111.174 81.3399 104.59 81.3399C86.3446 81.3399 71.5032 96.0267 71.5032 114.082C71.5032 119.389 72.7952 124.403 75.0685 128.843C75.2732 128.801 75.4829 128.78 75.6976 128.78C77.439 128.78 78.8509 130.174 78.8509 131.897C78.8509 132.612 78.5962 133.264 78.188 133.791C84.2324 141.703 93.8159 146.828 104.59 146.828C109.698 146.828 114.586 145.702 119.132 143.497C119.293 142.633 120.053 141.977 120.971 141.977C122.004 141.977 122.843 142.807 122.843 143.83C122.843 144.853 122.004 145.683 120.971 145.683C120.671 145.683 120.39 145.609 120.139 145.483C115.278 147.847 110.05 149.052 104.59 149.052C93.0069 149.052 82.712 143.508 76.2631 134.962C76.0808 134.996 75.8923 135.015 75.6976 135.017C73.9599 135.017 72.5481 133.62 72.5481 131.897ZM74.0461 131.897C74.0461 132.801 74.7876 133.535 75.6976 133.535C76.6114 133.535 77.3529 132.801 77.3529 131.897C77.3529 130.996 76.6114 130.263 75.6976 130.263C74.7876 130.263 74.0461 130.996 74.0461 131.897ZM123.854 87.3325C123.854 88.2368 124.596 88.9705 125.506 88.9705C126.42 88.9705 127.161 88.2368 127.161 87.3325C127.161 86.4319 126.42 85.6982 125.506 85.6982C124.596 85.6982 123.854 86.4319 123.854 87.3325Z" fill="black"/>
<path fill-rule="evenodd" clip-rule="evenodd" d="M122.526 121.333C122.526 126.882 118.239 130.092 110.026 130.092H109.162V135.645H103.62V130.092H99.3978V135.645H93.8561V130.092H88.8421V124.427H93.8669V103.652H88.8421V97.9911H93.8561V92.3554H99.3978V97.9911H103.62V92.3554H109.162V97.9911C116.956 97.9984 120.965 101.346 120.965 106.338C120.965 109.548 119.356 112.024 116.811 113.398C120.292 114.544 122.526 117.295 122.526 121.333ZM99.2062 111.153H108.24C111.768 111.153 113.688 109.866 113.688 107.347C113.688 104.823 111.768 103.583 108.24 103.583H100.569V103.652H99.2062V111.153ZM115.249 120.556C115.249 117.848 113.239 116.565 109.491 116.565H99.2062V124.431H100.569V124.5H109.491C113.239 124.5 115.249 123.307 115.249 120.556Z" fill="black"/>
<defs>
<filter id="filter0_d_12_1036" x="0" y="0" width="212" height="230" filterUnits="userSpaceOnUse" color-interpolation-filters="sRGB">
<feFlood flood-opacity="0" result="BackgroundImageFix"/>
<feColorMatrix in="SourceAlpha" type="matrix" values="0 0 0 0 0 0 0 0 0 0 0 0 0 0 0 0 0 0 127 0" result="hardAlpha"/>
<feOffset dx="2" dy="2"/>
<feGaussianBlur stdDeviation="5"/>
<feComposite in2="hardAlpha" operator="out"/>
<feColorMatrix type="matrix" values="0 0 0 0 0 0 0 0 0 0 0 0 0 0 0 0 0 0 0.1 0"/>
<feBlend mode="normal" in2="BackgroundImageFix" result="effect1_dropShadow_12_1036"/>
<feBlend mode="normal" in="SourceGraphic" in2="effect1_dropShadow_12_1036" result="shape"/>
</filter>
<linearGradient id="paint0_linear_12_1036" x1="145.891" y1="188.747" x2="61.1725" y2="34.7011" gradientUnits="userSpaceOnUse">
<stop stop-color="white"/>
<stop offset="1" stop-color="#F1F1F1"/>
</linearGradient>
</defs>
</svg>
