<svg width="106" height="116" viewBox="0 0 106 116" fill="none" xmlns="http://www.w3.org/2000/svg">
<g filter="url(#filter0_d_12_1237)">
<path d="M46.2603 9.26668C49.197 7.57777 52.803 7.57777 55.7397 9.26669L89.1912 28.5049C92.165 30.2151 94 33.3965 94 36.8419V75.1581C94 78.6035 92.165 81.7849 89.1912 83.4951L55.7397 102.733C52.803 104.422 49.197 104.422 46.2603 102.733L12.8088 83.4951C9.83503 81.7849 8 78.6035 8 75.1581V36.8419C8 33.3965 9.83503 30.2151 12.8088 28.5049L46.2603 9.26668Z" fill="white"/>
<path d="M46.5763 12.0707C49.3172 10.4831 52.6828 10.4831 55.4237 12.0707L86.6452 30.1546C89.4207 31.7622 91.1334 34.7527 91.1334 37.9914V74.0086C91.1334 77.2473 89.4207 80.2378 86.6452 81.8454L55.4237 99.9293C52.6828 101.517 49.3172 101.517 46.5763 99.9293L15.3549 81.8454C12.5794 80.2378 10.8667 77.2473 10.8667 74.0086V37.9914C10.8667 34.7527 12.5794 31.7622 15.3549 30.1546L46.5763 12.0707Z" fill="url(#paint0_linear_12_1237)"/>
</g>
<g clip-path="url(#clip0_12_1237)">
<path d="M58.5 61C58.5 61.4737 58.8388 61.8725 59.3063 61.9513L63.1062 62.5837C64.7837 62.8638 66 64.3013 66 66C66 68.0675 64.3175 69.75 62.25 69.75V71H59.75V69.75C57.6825 69.75 56 68.0675 56 66H58.5C58.5 66.69 59.06 67.25 59.75 67.25H62.25C62.94 67.25 63.5 66.69 63.5 66C63.5 65.5263 63.1612 65.1275 62.6937 65.0487L58.8938 64.4163C57.2163 64.1362 56 62.6987 56 61C56 58.9325 57.6825 57.25 59.75 57.25V56H62.25V57.25C64.3175 57.25 66 58.9325 66 61H63.5C63.5 60.31 62.94 59.75 62.25 59.75H59.75C59.06 59.75 58.5 60.31 58.5 61ZM53.5 66C53.5 67.7 54.1862 69.2387 55.2913 70.3675C53.93 70.775 52.4912 71 51 71C42.7287 71 36 64.2712 36 56C36 47.7287 42.7287 41 51 41C59.2712 41 66 47.7287 66 56C66 56.01 65.9988 56.02 65.9988 56.0312C65.255 55.4688 64.3962 55.0563 63.4475 54.8713C63.3663 53.965 63.18 53.09 62.915 52.25H45.965C45.6 53.4412 45.375 54.7013 45.375 56C45.375 57.2987 45.5988 58.56 45.9625 59.75H53.6262C53.5437 60.1537 53.5 60.5725 53.5 61V62.25H46.9662C48.2463 64.855 49.98 66.9037 50.9963 67.98C51.6412 67.2937 52.57 66.2237 53.5 64.8562V66ZM46.9725 49.75H55.0163C53.7425 47.1512 52.0138 45.0975 51.0013 44.0187C49.9863 45.0963 48.2537 47.1475 46.9725 49.75ZM54.265 43.9475C55.4363 45.4 56.75 47.4138 57.7225 49.75H61.8075C60.1712 46.9387 57.4762 44.8188 54.265 43.9475ZM40.1912 49.75H44.2225C45.2063 47.4062 46.56 45.4062 47.7362 43.9475C44.5238 44.8188 41.8263 46.9338 40.1912 49.75ZM38.5 56C38.5 57.3062 38.7037 58.565 39.0763 59.75H43.3787C43.0712 58.555 42.875 57.3025 42.875 56C42.875 54.6975 43.0712 53.445 43.3787 52.25H39.0763C38.7025 53.435 38.5 54.6938 38.5 56ZM47.7362 68.0525C46.5612 66.5938 45.2063 64.5938 44.2225 62.25H40.1912C41.8263 65.0662 44.5237 67.1812 47.735 68.0525H47.7362Z" fill="black"/>
</g>
<defs>
<filter id="filter0_d_12_1237" x="0" y="0" width="106" height="116" filterUnits="userSpaceOnUse" color-interpolation-filters="sRGB">
<feFlood flood-opacity="0" result="BackgroundImageFix"/>
<feColorMatrix in="SourceAlpha" type="matrix" values="0 0 0 0 0 0 0 0 0 0 0 0 0 0 0 0 0 0 127 0" result="hardAlpha"/>
<feOffset dx="2" dy="2"/>
<feGaussianBlur stdDeviation="5"/>
<feComposite in2="hardAlpha" operator="out"/>
<feColorMatrix type="matrix" values="0 0 0 0 0 0 0 0 0 0 0 0 0 0 0 0 0 0 0.1 0"/>
<feBlend mode="normal" in2="BackgroundImageFix" result="effect1_dropShadow_12_1237"/>
<feBlend mode="normal" in="SourceGraphic" in2="effect1_dropShadow_12_1237" result="shape"/>
</filter>
<linearGradient id="paint0_linear_12_1237" x1="69.7637" y1="90.627" x2="30.6159" y2="20.8803" gradientUnits="userSpaceOnUse">
<stop stop-color="white"/>
<stop offset="1" stop-color="#F1F1F1"/>
</linearGradient>
<clipPath id="clip0_12_1237">
<rect width="30" height="30" fill="white" transform="translate(36 41)"/>
</clipPath>
</defs>
</svg>
