<svg width="134" height="146" viewBox="0 0 134 146" fill="none" xmlns="http://www.w3.org/2000/svg">
<g filter="url(#filter0_d_12_1006)">
<path d="M58.7172 9.66252C62.61 7.44582 67.39 7.44583 71.2828 9.66253L115.626 34.9126C119.568 37.1573 122 41.3329 122 45.855V96.145C122 100.667 119.568 104.843 115.626 107.087L71.2828 132.337C67.39 134.554 62.61 134.554 58.7172 132.337L14.3744 107.087C10.4325 104.843 8 100.667 8 96.145V45.855C8 41.3329 10.4325 37.1573 14.3744 34.9126L58.7172 9.66252Z" fill="white"/>
<path d="M59.1361 13.3428C62.7694 11.2591 67.2307 11.2591 70.864 13.3428L112.251 37.0779C115.93 39.1879 118.2 43.1129 118.2 47.3637V94.6363C118.2 98.8871 115.93 102.812 112.251 104.922L70.864 128.657C67.2307 130.741 62.7694 130.741 59.1361 128.657L17.7495 104.922C14.0704 102.812 11.8 98.8871 11.8 94.6363V47.3637C11.8 43.1129 14.0704 39.1879 17.7495 37.0779L59.1361 13.3428Z" fill="url(#paint0_linear_12_1006)"/>
</g>
<path d="M45.4843 76.2656C45.1786 76.2656 44.881 76.3636 44.6351 76.5452C44.3892 76.7268 44.2079 76.9824 44.1179 77.2746L40.3054 89.6652C40.2396 89.8791 40.2249 90.1054 40.2625 90.3259C40.3001 90.5465 40.3889 90.7552 40.5218 90.9352C40.6547 91.1151 40.828 91.2614 41.0277 91.3622C41.2275 91.4631 41.4481 91.5156 41.6718 91.5156H55.4921C55.6816 91.5183 55.8697 91.4833 56.0455 91.4127C56.2213 91.342 56.3813 91.2371 56.5162 91.1041C56.6512 90.9711 56.7583 90.8126 56.8314 90.6378C56.9045 90.463 56.9422 90.2754 56.9422 90.0859C56.9422 89.8965 56.9045 89.7089 56.8314 89.5341C56.7583 89.3593 56.6512 89.2008 56.5162 89.0678C56.3813 88.9347 56.2213 88.8299 56.0455 88.7592C55.8697 88.6886 55.6816 88.6536 55.4921 88.6562H43.6079L46.5398 79.125H60.6319L63.5639 88.6562H60.2578C60.0683 88.6536 59.8802 88.6886 59.7044 88.7592C59.5286 88.8299 59.3686 88.9347 59.2337 89.0678C59.0988 89.2008 58.9916 89.3593 58.9185 89.5341C58.8454 89.7089 58.8077 89.8965 58.8077 90.0859C58.8077 90.2754 58.8454 90.463 58.9185 90.6378C58.9916 90.8126 59.0988 90.9711 59.2337 91.1041C59.3686 91.2371 59.5286 91.342 59.7044 91.4127C59.8802 91.4833 60.0683 91.5183 60.2578 91.5156H65.5C65.7237 91.5156 65.9443 91.4631 66.1441 91.3622C66.3438 91.2614 66.5171 91.1151 66.65 90.9352C66.7829 90.7552 66.8717 90.5465 66.9093 90.3259C66.9469 90.1054 66.9322 89.8791 66.8664 89.6652L63.0539 77.2746C62.9639 76.9824 62.7826 76.7268 62.5367 76.5452C62.2908 76.3636 61.9932 76.2656 61.6875 76.2656H45.4843Z" fill="black"/>
<path d="M69.3126 76.2656C69.0069 76.2656 68.7092 76.3636 68.4633 76.5452C68.2174 76.7268 68.0361 76.9824 67.9462 77.2746L66.5816 81.7089C66.5234 81.8891 66.5016 82.0791 66.5175 82.2679C66.5333 82.4566 66.5865 82.6403 66.6739 82.8083C66.7614 82.9764 66.8814 83.1253 67.0269 83.2466C67.1724 83.3679 67.3405 83.459 67.5215 83.5148C67.7025 83.5705 67.8928 83.5897 68.0814 83.5713C68.2699 83.5529 68.4528 83.4972 68.6196 83.4074C68.7865 83.3177 68.9338 83.1957 69.053 83.0486C69.1723 82.9014 69.2612 82.7321 69.3144 82.5503L70.3681 79.125H84.4602L87.3921 88.6562H69.7891C69.5997 88.6536 69.4116 88.6886 69.2358 88.7592C69.06 88.8299 68.9 88.9347 68.765 89.0678C68.6301 89.2008 68.523 89.3593 68.4499 89.5341C68.3767 89.7089 68.3391 89.8965 68.3391 90.0859C68.3391 90.2754 68.3767 90.463 68.4499 90.6378C68.523 90.8126 68.6301 90.9711 68.765 91.1041C68.9 91.2371 69.06 91.342 69.2358 91.4127C69.4116 91.4833 69.5997 91.5183 69.7891 91.5156H89.3282C89.5519 91.5156 89.7725 91.4631 89.9723 91.3622C90.172 91.2614 90.3453 91.1151 90.4782 90.9352C90.6111 90.7552 90.6999 90.5465 90.7375 90.3259C90.7751 90.1054 90.7604 89.8791 90.6946 89.6652L86.8821 77.2746C86.7921 76.9824 86.6109 76.7268 86.3649 76.5452C86.119 76.3636 85.8214 76.2656 85.5157 76.2656H69.3126Z" fill="black"/>
<path d="M57.3985 63.875C57.0928 63.875 56.7951 63.973 56.5492 64.1546C56.3033 64.3362 56.1221 64.5918 56.0321 64.884L53.6865 72.509C53.6283 72.6892 53.6065 72.8792 53.6223 73.068C53.6382 73.2567 53.6914 73.4404 53.7788 73.6085C53.8663 73.7765 53.9862 73.9254 54.1317 74.0467C54.2772 74.168 54.4454 74.2591 54.6264 74.3149C54.8074 74.3706 54.9977 74.3898 55.1862 74.3714C55.3747 74.353 55.5577 74.2973 55.7245 74.2075C55.8913 74.1178 56.0386 73.9958 56.1579 73.8487C56.2772 73.7015 56.366 73.5322 56.4193 73.3504L58.454 66.7344H72.5461L74.5808 73.3504C74.634 73.5322 74.7229 73.7015 74.8422 73.8487C74.9614 73.9958 75.1087 74.1178 75.2755 74.2075C75.4424 74.2973 75.6253 74.353 75.8138 74.3714C76.0024 74.3898 76.1926 74.3706 76.3737 74.3149C76.5547 74.2591 76.7228 74.168 76.8683 74.0467C77.0138 73.9254 77.1338 73.7765 77.2212 73.6085C77.3087 73.4404 77.3619 73.2567 77.3777 73.068C77.3936 72.8792 77.3718 72.6892 77.3136 72.509L74.968 64.884C74.878 64.5918 74.6968 64.3362 74.4508 64.1546C74.2049 63.973 73.9073 63.875 73.6016 63.875H57.3985Z" fill="black"/>
<path d="M65.4777 49.5577C65.0988 49.5636 64.7378 49.7196 64.4739 49.9915C64.2101 50.2634 64.0649 50.629 64.0703 51.0078V55.7734C64.0677 55.9629 64.1027 56.151 64.1733 56.3268C64.244 56.5026 64.3488 56.6626 64.4819 56.7975C64.6149 56.9325 64.7734 57.0396 64.9482 57.1127C65.123 57.1858 65.3106 57.2235 65.5 57.2235C65.6895 57.2235 65.8771 57.1858 66.0519 57.1127C66.2267 57.0396 66.3852 56.9325 66.5182 56.7975C66.6512 56.6626 66.7561 56.5026 66.8267 56.3268C66.8974 56.151 66.9324 55.9629 66.9297 55.7734V51.0078C66.9325 50.8165 66.8968 50.6265 66.8247 50.4492C66.7527 50.2719 66.6458 50.1109 66.5104 49.9756C66.375 49.8404 66.2138 49.7337 66.0364 49.6619C65.859 49.5901 65.669 49.5547 65.4777 49.5577Z" fill="black"/>
<path d="M78.9777 55.1312C78.7057 54.8675 78.34 54.7226 77.9612 54.7282C77.5823 54.7339 77.2212 54.8897 76.9572 55.1615L73.5874 58.5313C73.4515 58.6634 73.3432 58.8211 73.2689 58.9954C73.1945 59.1696 73.1556 59.357 73.1542 59.5464C73.1529 59.7359 73.1892 59.9237 73.2611 60.099C73.333 60.2743 73.439 60.4336 73.573 60.5676C73.7069 60.7015 73.8662 60.8076 74.0415 60.8794C74.2168 60.9513 74.4047 60.9877 74.5941 60.9863C74.7836 60.985 74.9709 60.946 75.1452 60.8716C75.3194 60.7973 75.4772 60.689 75.6092 60.5532L78.979 57.1834C79.1163 57.05 79.2254 56.8904 79.2998 56.7141C79.3743 56.5378 79.4126 56.3484 79.4124 56.157C79.4123 55.9656 79.3738 55.7762 79.2991 55.6C79.2244 55.4238 79.1152 55.2644 78.9777 55.1312Z" fill="black"/>
<path d="M52.0224 55.1312C52.2944 54.8675 52.6601 54.7226 53.0389 54.7282C53.4178 54.7339 53.7789 54.8897 54.0429 55.1615L57.4127 58.5313C57.5486 58.6634 57.6568 58.8211 57.7312 58.9954C57.8056 59.1696 57.8445 59.357 57.8459 59.5464C57.8472 59.7359 57.8109 59.9237 57.739 60.099C57.6671 60.2743 57.5611 60.4336 57.4271 60.5676C57.2932 60.7015 57.1339 60.8076 56.9586 60.8794C56.7833 60.9513 56.5954 60.9877 56.406 60.9863C56.2165 60.985 56.0292 60.946 55.8549 60.8716C55.6807 60.7973 55.5229 60.689 55.3908 60.5532L52.021 57.1834C51.8838 57.05 51.7747 56.8904 51.7003 56.7141C51.6258 56.5378 51.5875 56.3484 51.5876 56.157C51.5878 55.9656 51.6263 55.7762 51.701 55.6C51.7757 55.4238 51.8849 55.2644 52.0224 55.1312Z" fill="black"/>
<defs>
<filter id="filter0_d_12_1006" x="0" y="0" width="134" height="146" filterUnits="userSpaceOnUse" color-interpolation-filters="sRGB">
<feFlood flood-opacity="0" result="BackgroundImageFix"/>
<feColorMatrix in="SourceAlpha" type="matrix" values="0 0 0 0 0 0 0 0 0 0 0 0 0 0 0 0 0 0 127 0" result="hardAlpha"/>
<feOffset dx="2" dy="2"/>
<feGaussianBlur stdDeviation="5"/>
<feComposite in2="hardAlpha" operator="out"/>
<feColorMatrix type="matrix" values="0 0 0 0 0 0 0 0 0 0 0 0 0 0 0 0 0 0 0.1 0"/>
<feBlend mode="normal" in2="BackgroundImageFix" result="effect1_dropShadow_12_1006"/>
<feBlend mode="normal" in="SourceGraphic" in2="effect1_dropShadow_12_1006" result="shape"/>
</filter>
<linearGradient id="paint0_linear_12_1006" x1="89.8728" y1="116.448" x2="38.7578" y2="24.4727" gradientUnits="userSpaceOnUse">
<stop stop-color="white"/>
<stop offset="1" stop-color="#F1F1F1"/>
</linearGradient>
</defs>
</svg>
