<svg width="134" height="146" viewBox="0 0 134 146" fill="none" xmlns="http://www.w3.org/2000/svg">
<g filter="url(#filter0_d_12_1026)">
<path d="M58.7172 9.66252C62.61 7.44582 67.39 7.44583 71.2828 9.66253L115.626 34.9126C119.568 37.1573 122 41.3329 122 45.855V96.145C122 100.667 119.568 104.843 115.626 107.087L71.2828 132.337C67.39 134.554 62.61 134.554 58.7172 132.337L14.3744 107.087C10.4325 104.843 8 100.667 8 96.145V45.855C8 41.3329 10.4325 37.1573 14.3744 34.9126L58.7172 9.66252Z" fill="white"/>
<path d="M59.1361 13.3428C62.7694 11.2591 67.2307 11.2591 70.864 13.3428L112.251 37.0779C115.93 39.1879 118.2 43.113 118.2 47.3637V94.6363C118.2 98.8871 115.93 102.812 112.251 104.922L70.864 128.657C67.2307 130.741 62.7694 130.741 59.1361 128.657L17.7495 104.922C14.0704 102.812 11.8 98.8871 11.8 94.6363V47.3637C11.8 43.113 14.0704 39.1879 17.7495 37.0779L59.1361 13.3428Z" fill="url(#paint0_linear_12_1026)"/>
</g>
<path d="M75.4932 79.8403C76.6914 79.4436 77.8752 80.4109 78.6832 80.7898L79.9592 78.4226C79 77.9313 78.3781 77.4563 77.1283 77.1739V75.8307H74.4391V77.3678C72.2402 78.2143 71.3828 81.4552 73.3196 82.9667C74.1251 83.5986 75.2613 84.0479 76.3691 84.4396C76.8936 84.625 77.1159 84.9787 77.0298 85.4907C76.9637 85.8842 76.6249 86.5514 75.7747 86.5571C74.8886 86.5627 74.6792 86.5303 74.032 86.1068L72.9068 85.3707L71.4346 87.6211L72.5598 88.3573C73.2668 88.8198 73.8273 89.05 74.4392 89.1587V90.6215H77.1284V89.0066C80.372 87.853 80.7458 83.1006 77.2654 81.9042C76.4165 81.604 75.481 81.2443 74.9793 80.8507C74.8071 80.5653 75.0711 79.9925 75.4932 79.8403Z" fill="black"/>
<path d="M82.4393 72.4671V58.2598L75.1796 51H48.5548V94.2072H69.2095C71.1148 95.345 73.3403 96 75.7162 96C82.735 96 88.4452 90.2898 88.4452 83.2709C88.4452 78.7186 86.0426 74.7174 82.4393 72.4671ZM79.75 59.3737V59.4263H74.1026V53.7263L79.75 59.3737ZM51.2441 53.6892H71.4134V62.1155H79.75V71.1973C78.4819 70.7725 77.1255 70.5418 75.7162 70.5418C68.6973 70.5418 62.9871 76.2521 62.9871 83.2709C62.9871 86.4144 64.1331 89.2948 66.0283 91.5179H51.2441V53.6892ZM75.7162 93.3108C70.1802 93.3108 65.6763 88.8069 65.6763 83.2709C65.6763 77.7349 70.1802 73.2311 75.7162 73.2311C81.2522 73.2311 85.756 77.7349 85.756 83.2709C85.756 88.8069 81.2522 93.3108 75.7162 93.3108Z" fill="black"/>
<path d="M55.6365 57.5438H65.6763V60.2331H55.6365V57.5438Z" fill="black"/>
<path d="M55.6365 62.9223H69.0827V65.6115H55.6365V62.9223Z" fill="black"/>
<path d="M55.6365 68.3008H63.5249V70.99H55.6365V68.3008Z" fill="black"/>
<defs>
<filter id="filter0_d_12_1026" x="0" y="0" width="134" height="146" filterUnits="userSpaceOnUse" color-interpolation-filters="sRGB">
<feFlood flood-opacity="0" result="BackgroundImageFix"/>
<feColorMatrix in="SourceAlpha" type="matrix" values="0 0 0 0 0 0 0 0 0 0 0 0 0 0 0 0 0 0 127 0" result="hardAlpha"/>
<feOffset dx="2" dy="2"/>
<feGaussianBlur stdDeviation="5"/>
<feComposite in2="hardAlpha" operator="out"/>
<feColorMatrix type="matrix" values="0 0 0 0 0 0 0 0 0 0 0 0 0 0 0 0 0 0 0.1 0"/>
<feBlend mode="normal" in2="BackgroundImageFix" result="effect1_dropShadow_12_1026"/>
<feBlend mode="normal" in="SourceGraphic" in2="effect1_dropShadow_12_1026" result="shape"/>
</filter>
<linearGradient id="paint0_linear_12_1026" x1="89.8728" y1="116.448" x2="38.7578" y2="24.4727" gradientUnits="userSpaceOnUse">
<stop stop-color="white"/>
<stop offset="1" stop-color="#F1F1F1"/>
</linearGradient>
</defs>
</svg>
