<svg width="106" height="116" viewBox="0 0 106 116" fill="none" xmlns="http://www.w3.org/2000/svg">
<g filter="url(#filter0_d_12_1015)">
<path d="M46.2603 9.26668C49.197 7.57777 52.803 7.57777 55.7397 9.26669L89.1912 28.5049C92.165 30.2151 94 33.3965 94 36.8419V75.1581C94 78.6035 92.165 81.7849 89.1912 83.4951L55.7397 102.733C52.803 104.422 49.197 104.422 46.2603 102.733L12.8088 83.4951C9.83503 81.7849 8 78.6035 8 75.1581V36.8419C8 33.3965 9.83503 30.2151 12.8088 28.5049L46.2603 9.26668Z" fill="white"/>
<path d="M46.5763 12.0707C49.3172 10.4831 52.6828 10.4831 55.4237 12.0707L86.6452 30.1546C89.4207 31.7622 91.1334 34.7527 91.1334 37.9914V74.0086C91.1334 77.2473 89.4207 80.2378 86.6452 81.8454L55.4237 99.9293C52.6828 101.517 49.3172 101.517 46.5763 99.9293L15.3549 81.8454C12.5794 80.2378 10.8667 77.2473 10.8667 74.0086V37.9914C10.8667 34.7527 12.5794 31.7622 15.3549 30.1546L46.5763 12.0707Z" fill="url(#paint0_linear_12_1015)"/>
</g>
<g clip-path="url(#clip0_12_1015)">
<path d="M66.7061 46.3726C66.7061 45.9473 66.4517 45.5641 66.0622 45.4024L51.3946 39.3168C51.1418 39.2119 50.8583 39.2119 50.6054 39.3168L35.9378 45.4024C35.5483 45.564 35.2939 45.9473 35.2939 46.3726V65.6274C35.2939 66.0527 35.5482 66.436 35.9378 66.5976L50.6054 72.6832C50.8555 72.787 51.1367 72.7892 51.3933 72.6832C51.4059 72.679 50.8505 72.909 66.0622 66.5976C66.4518 66.436 66.7061 66.0527 66.7061 65.6274V46.3726ZM51 51.4125L45.5956 49.1702L57.2752 44.0244L63.0411 46.4167L51 51.4125ZM37.3709 48.0255L42.0337 49.9601V55.4182C42.0337 55.9974 42.4986 56.467 43.0721 56.467C43.6456 56.467 44.1106 55.9974 44.1106 55.4182V50.8218L49.9615 53.2494V70.1483L37.3709 64.9244V48.0255ZM51 41.4208L54.6 42.9144L42.9204 48.0602L38.959 46.4166L51 41.4208ZM52.0385 53.2494L64.6291 48.0255V64.9244L52.0385 70.1483V53.2494Z" fill="black"/>
</g>
<defs>
<filter id="filter0_d_12_1015" x="0" y="0" width="106" height="116" filterUnits="userSpaceOnUse" color-interpolation-filters="sRGB">
<feFlood flood-opacity="0" result="BackgroundImageFix"/>
<feColorMatrix in="SourceAlpha" type="matrix" values="0 0 0 0 0 0 0 0 0 0 0 0 0 0 0 0 0 0 127 0" result="hardAlpha"/>
<feOffset dx="2" dy="2"/>
<feGaussianBlur stdDeviation="5"/>
<feComposite in2="hardAlpha" operator="out"/>
<feColorMatrix type="matrix" values="0 0 0 0 0 0 0 0 0 0 0 0 0 0 0 0 0 0 0.1 0"/>
<feBlend mode="normal" in2="BackgroundImageFix" result="effect1_dropShadow_12_1015"/>
<feBlend mode="normal" in="SourceGraphic" in2="effect1_dropShadow_12_1015" result="shape"/>
</filter>
<linearGradient id="paint0_linear_12_1015" x1="69.7637" y1="90.627" x2="30.6159" y2="20.8803" gradientUnits="userSpaceOnUse">
<stop stop-color="white"/>
<stop offset="1" stop-color="#F1F1F1"/>
</linearGradient>
<clipPath id="clip0_12_1015">
<rect width="33.193" height="33.5238" fill="white" transform="translate(34.4036 39.2381)"/>
</clipPath>
</defs>
</svg>
