<svg width="237" height="260" viewBox="0 0 237 260" fill="none" xmlns="http://www.w3.org/2000/svg">
<g filter="url(#filter0_d_12_1047)">
<path d="M104.541 11.1667C111.951 6.94443 121.049 6.94443 128.459 11.1667L212.866 59.2622C220.37 63.5377 225 71.4912 225 80.1047V175.895C225 184.509 220.37 192.462 212.866 196.738L128.459 244.833C121.049 249.056 111.951 249.056 104.541 244.833L20.1338 196.738C12.6302 192.462 8 184.509 8 175.895V80.1047C8 71.4912 12.6302 63.5377 20.1338 59.2622L104.541 11.1667Z" fill="white"/>
<path d="M105.338 18.1767C112.254 14.2078 120.746 14.2078 127.662 18.1767L206.442 63.3864C213.445 67.4055 217.767 74.8818 217.767 82.9785V173.022C217.767 181.118 213.445 188.595 206.442 192.614L127.662 237.823C120.746 241.792 112.254 241.792 105.338 237.823L26.5582 192.614C19.5549 188.595 15.2333 181.118 15.2333 173.022V82.9785C15.2333 74.8818 19.5549 67.4055 26.5582 63.3864L105.338 18.1767Z" fill="url(#paint0_linear_12_1047)"/>
</g>
<defs>
<filter id="filter0_d_12_1047" x="0" y="0" width="237" height="260" filterUnits="userSpaceOnUse" color-interpolation-filters="sRGB">
<feFlood flood-opacity="0" result="BackgroundImageFix"/>
<feColorMatrix in="SourceAlpha" type="matrix" values="0 0 0 0 0 0 0 0 0 0 0 0 0 0 0 0 0 0 127 0" result="hardAlpha"/>
<feOffset dx="2" dy="2"/>
<feGaussianBlur stdDeviation="5"/>
<feComposite in2="hardAlpha" operator="out"/>
<feColorMatrix type="matrix" values="0 0 0 0 0 0 0 0 0 0 0 0 0 0 0 0 0 0 0.1 0"/>
<feBlend mode="normal" in2="BackgroundImageFix" result="effect1_dropShadow_12_1047"/>
<feBlend mode="normal" in="SourceGraphic" in2="effect1_dropShadow_12_1047" result="shape"/>
</filter>
<linearGradient id="paint0_linear_12_1047" x1="163.845" y1="214.567" x2="66.4498" y2="39.431" gradientUnits="userSpaceOnUse">
<stop stop-color="white"/>
<stop offset="1" stop-color="#F1F1F1"/>
</linearGradient>
</defs>
</svg>
