<svg width="1360" height="620" viewBox="0 0 1360 620" fill="none" xmlns="http://www.w3.org/2000/svg">
  <g clip-path="url(#clip0_53_1897)">
    <g style="mix-blend-mode: multiply" opacity="0.5">
      <path d="M990.232 1114.85H948.585V301.666H990.232V1114.85Z" fill="url(#paint0_linear_53_1897)" />
      <path d="M1137.58 1115H1095.81V178.02H1137.58V1115Z" fill="url(#paint1_linear_53_1897)" />
      <path d="M842.815 1114.85H801.167V429.088H842.815V1114.85Z" fill="url(#paint2_linear_53_1897)" />
      <path d="M621.682 1114.85H580.034V602.574H621.682V1114.85Z" fill="url(#paint3_linear_53_1897)" />
      <path d="M326.84 1114.85H285.192V570.485H326.84V1114.85Z" fill="url(#paint4_linear_53_1897)" />
      <path d="M1358.78 1114.85H1317.14V312.717H1358.78V1114.85Z" fill="url(#paint5_linear_53_1897)" />
      <path d="M474.264 1114.85H432.61V572.38H474.264V1114.85Z" fill="url(#paint6_linear_53_1897)" />
      <path d="M105.713 1114.85H64.0596V610.045H105.713V1114.85Z" fill="url(#paint7_linear_53_1897)" />
      <path d="M1063.94 1114.85H1022.29V464.582H1063.94V1114.85Z" fill="url(#paint8_linear_53_1897)" />
      <path d="M916.523 1114.85H874.876V538.162H916.523V1114.85Z" fill="url(#paint9_linear_53_1897)" />
      <path d="M1285.07 1114.85H1243.43V266.78H1285.07V1114.85Z" fill="url(#paint10_linear_53_1897)" />
      <path d="M1211.36 1114.85H1169.72V401.307H1211.36V1114.85Z" fill="url(#paint11_linear_53_1897)" />
    </g>
    <path d="M1042.57 613.276H1045.12V744.061H1042.57V613.276Z" fill="#E6E6E6" />
    <path d="M1042.57 548.305H1045.12V242.343H1042.57V548.305Z" fill="#E6E6E6" />
    <path d="M83.0582 663.713H85.4458V574.582H83.0582V663.713Z" fill="#E6E6E6" />
    <path d="M83.0581 355.069H85.4457V320.772H83.0581V355.069Z" fill="#E6E6E6" />
    <path d="M231.937 687.771H229.556V610.443H231.937V687.771Z" fill="#E6E6E6" />
    <path d="M682.196 538.078H679.808V460.75H682.196V538.078Z" fill="#E6E6E6" />
    <path d="M1267.49 526.961H1269.88V462.579H1267.49V526.961Z" fill="#E6E6E6" />
    <path d="M1267.49 304.018H1269.88V279.251H1267.49V304.018Z" fill="#E6E6E6" />
    <path d="M923.067 599.464L924.631 599.35C924.841 600.83 925.611 601.588 926.904 601.588C927.337 601.588 927.716 601.485 928.089 601.269C928.446 601.064 928.748 600.739 928.997 600.294C929.249 599.867 929.4 599.326 929.4 598.664C929.404 597.866 929.169 597.218 928.696 596.721C928.269 596.258 927.656 595.981 926.862 595.981C925.936 595.981 925.196 596.372 924.721 597.124L923.362 596.967L924.468 590.861H930.398V592.245H925.671L925.046 595.476C925.763 594.958 926.503 594.699 927.265 594.699C928.004 594.699 928.642 594.85 929.195 595.187C929.718 595.53 930.17 595.981 930.464 596.558C930.801 597.124 930.939 597.81 930.939 598.538C930.943 599.392 930.763 600.14 930.398 600.781C930.019 601.407 929.544 601.913 928.973 602.255C928.365 602.58 927.68 602.773 926.904 602.773C925.845 602.773 924.949 602.472 924.27 601.888C923.588 601.291 923.187 600.483 923.067 599.464Z" fill="#CCCCCC" />
    <path d="M937.795 602.556H936.358V593.267C935.572 594.005 934.602 594.601 933.447 595.054V593.622C935.125 592.822 936.268 591.854 936.869 590.65H937.795V602.556Z" fill="#CCCCCC" />
    <path d="M942.336 602.556V600.907H944.026V602.556H942.336Z" fill="#CCCCCC" />
    <path d="M953.769 601.172V602.556H945.914C945.914 601.888 946.185 601.172 946.66 600.504C947.149 599.819 947.911 599.049 948.946 598.194C949.746 597.545 950.341 596.991 950.786 596.558C951.235 596.141 951.594 595.69 951.862 595.204C952.145 594.747 952.265 594.32 952.265 593.893C952.269 593.5 952.165 593.149 951.953 592.84C951.814 592.545 951.514 592.293 951.189 592.112C950.852 591.944 950.467 591.858 950.034 591.854C949.319 591.854 948.729 592.064 948.332 592.479C947.919 592.916 947.707 593.502 947.695 594.236L946.209 594.085C946.418 591.795 947.697 590.65 950.046 590.65C951.141 590.65 952.033 590.945 952.723 591.535C953.42 592.154 953.769 592.942 953.769 593.959C953.769 594.537 953.582 595.168 953.24 595.83C952.855 596.498 951.874 597.545 950.251 598.88C949.547 599.482 949.018 599.933 948.729 600.204C948.404 600.48 948.164 600.793 947.941 601.172H953.769Z" fill="#CCCCCC" />
    <path fill-rule="evenodd" clip-rule="evenodd" d="M955.603 599.819L957.017 599.704C957.215 600.944 957.895 601.587 958.977 601.587C959.212 601.587 959.428 601.545 959.651 601.485C959.879 601.425 960.072 601.335 960.276 601.172C960.433 601.058 960.631 600.919 960.757 600.733C960.918 600.561 961.054 600.36 961.166 600.131C961.271 599.899 961.363 599.66 961.443 599.415C961.497 599.199 961.605 598.904 961.617 598.651C961.684 598.351 961.708 598.074 961.72 597.761V596.991C961.082 598.044 960.156 598.537 958.875 598.537C957.877 598.537 957.023 598.194 956.355 597.448C955.702 596.714 955.375 595.786 955.375 594.663C955.375 593.869 955.537 593.147 955.868 592.545C956.181 591.944 956.632 591.487 957.173 591.138C957.72 590.825 958.37 590.65 959.097 590.65C959.895 590.654 960.585 590.827 961.166 591.168C961.736 591.505 962.221 592.078 962.622 592.888C963.003 593.622 963.195 594.789 963.199 596.39C963.199 598.537 962.82 600.18 962.08 601.22C961.305 602.255 960.282 602.772 958.929 602.772C958.352 602.772 957.871 602.682 957.371 602.454C956.918 602.269 956.533 601.946 956.217 601.485C955.88 601.058 955.663 600.504 955.603 599.819ZM961.569 594.585C961.569 593.809 961.359 593.147 960.944 592.666C960.529 592.112 959.963 591.854 959.302 591.854C958.574 591.854 958.009 592.142 957.558 592.69C957.095 593.267 956.896 593.923 956.896 594.699C956.896 595.415 957.095 596.041 957.558 596.528C958.009 597.009 958.568 597.25 959.272 597.25C959.963 597.25 960.529 597.009 960.944 596.498C961.361 596.009 961.569 595.371 961.569 594.585Z" fill="#CCCCCC" />
    <path d="M1354.95 281.23H1355.63V253.497H1358.92V221.559H1355.63V206.519H1354.95V221.559H1351.67V253.497H1354.95V281.23Z" fill="#999999" />
    <path d="M1337.65 345.113H1338.33V320.55H1341.62V281.291H1338.33V270.402H1337.65V281.291H1334.36V320.55H1337.65V345.113Z" fill="#999999" />
    <path d="M1320.34 353.956H1321.02V338.911H1324.31V307.833H1321.02V279.245H1320.34V307.833H1317.05V338.911H1320.34V353.956Z" fill="#999999" />
    <path d="M1303.03 396.783H1303.71V381.731H1307V337.112H1303.71V322.066H1303.03V337.112H1299.75V381.731H1303.03V396.783Z" fill="#999999" />
    <path d="M1285.72 432.15H1286.41V406.89H1289.7V372.479H1286.41V357.427H1285.72V372.479H1282.44V406.89H1285.72V432.15Z" fill="#999999" />
    <path d="M1268.42 467.518H1269.1V452.472H1272.39V415.493H1269.1V392.801H1268.42V415.493H1265.14V452.472H1268.42V467.518Z" fill="#999999" />
    <path d="M1251.11 494.042H1251.8V478.996H1255.08V434.376H1251.8V419.331H1251.11V434.376H1247.83V478.996H1251.11V494.042Z" fill="#999999" />
    <path d="M1233.8 538.253H1234.49V523.213H1237.77V487.479H1234.49V463.542H1233.8V487.479H1230.52V523.213H1233.8V538.253Z" fill="#999999" />
    <path d="M1216.5 485.204H1217.19V470.153H1220.47V425.533H1217.19V410.487H1216.5V425.533H1213.22V470.153H1216.5V485.204Z" fill="#999999" />
    <path d="M1199.19 511.728H1199.88V496.683H1203.16V464.973H1199.88V437.011H1199.19V464.973H1195.91V496.683H1199.19V511.728Z" fill="#999999" />
    <path d="M1181.89 458.675H1182.57V443.629H1185.85V399.003H1182.57V383.958H1181.89V399.003H1178.6V443.629H1181.89V458.675Z" fill="#999999" />
    <path d="M1164.58 423.807H1165.27V400.681H1168.55V364.135H1165.27V349.089H1164.58V364.135H1161.3V400.681H1164.58V423.807Z" fill="#999999" />
    <path d="M1147.28 383.253H1147.96V365.494H1151.24V329.122H1147.96V300.222H1147.28V329.122H1144V365.494H1147.28V383.253Z" fill="#999999" />
    <path d="M1129.97 294.495H1130.66V279.45H1133.94V234.824H1130.66V217.005H1129.97V234.824H1126.68V279.45H1129.97V294.495Z" fill="#999999" />
    <path d="M1112.66 323.787H1113.35V300.439H1116.63V255.813H1113.35V240.762H1112.66V255.813H1109.38V300.439H1112.66V323.787Z" fill="#999999" />
    <path d="M1095.35 343.531H1096.04V328.485H1099.32V292.534H1096.04V274.078H1095.35V292.534H1092.08V328.485H1095.35V343.531Z" fill="#999999" />
    <path d="M1078.05 402.258H1078.74V387.212H1082.02V342.592H1078.74V321.453H1078.05V342.592H1074.77V387.212H1078.05V402.258Z" fill="#999999" />
    <path d="M1060.74 416.894H1061.43V401.855H1064.72V365.471H1061.43V342.183H1060.74V365.471H1057.46V401.855H1060.74V416.894Z" fill="#999999" />
    <path d="M1043.44 443.424H1044.12V428.372H1047.41V383.753H1044.12V368.707H1043.44V383.753H1040.15V428.372H1043.44V443.424Z" fill="#999999" />
    <path d="M1026.13 434.581H1026.82V419.535H1030.1V391.579H1026.82V359.87H1026.13V391.579H1022.85V419.535H1026.13V434.581Z" fill="#999999" />
    <path d="M1008.83 425.737H1009.51V399.965H1012.79V366.072H1009.51V351.026H1008.83V366.072H1005.54V399.965H1008.83V425.737Z" fill="#999999" />
    <path d="M991.513 369.507H992.199V348.253H995.489V314.534H992.199V301.161H991.513V314.534H988.236V348.253H991.513V369.507Z" fill="#999999" />
    <path d="M974.211 395.219H974.896V370.385H978.18V344.962H974.896V310.804H974.211V344.962H970.927V370.385H974.211V395.219Z" fill="#999999" />
    <path d="M956.902 451.161H957.594V438.329H960.872V404.67H957.594V378.657H956.902V404.67H953.625V438.329H956.902V451.161Z" fill="#F75709" />
    <path d="M939.6 446.607H940.285V421.863H943.569V388.698H940.285V367.462H939.6V388.698H936.316V421.863H939.6V446.607Z" fill="#0051FF" />
    <path d="M922.297 469.948H922.977V454.903H926.26V416.473H922.977V395.237H922.297V416.473H919.007V454.903H922.297V469.948Z" fill="#999999" />
    <path d="M904.988 509.833H905.674V489.807H908.952V461.297H905.674V432.62H904.988V461.297H901.705V489.807H904.988V509.833Z" fill="#999999" />
    <path d="M887.68 523.002H888.365V501.76H891.649V463.331H888.365V448.285H887.68V463.331H884.396V501.76H887.68V523.002Z" fill="#999999" />
    <path d="M870.371 558.375H871.063V529.878H874.347V498.698H871.063V483.652H870.371V498.698H867.087V529.878H870.371V558.375Z" fill="#999999" />
    <path d="M853.069 580.899H853.748V565.516H857.038V521.474H853.748V496.496H853.069V521.474H849.779V565.516H853.069V580.899Z" fill="#999999" />
    <path d="M835.76 567.213H836.446V552.167H839.729V507.547H836.446V492.496H835.76V507.547H832.476V552.167H835.76V567.213Z" fill="#999999" />
    <path d="M818.458 540.689H819.143V517.431H822.427V481.017H819.143V465.972H818.458V481.017H815.174V517.431H818.458V540.689Z" fill="#999999" />
    <path d="M801.149 531.846H801.834V503.378H805.118V472.174H801.834V457.128H801.149V472.174H797.859V503.378H801.149V531.846Z" fill="#999999" />
    <path d="M783.84 483.893H784.52V469.437H787.81V435.297H784.52V421.533H783.84V435.297H780.556V469.437H783.84V483.893Z" fill="#999999" />
    <path d="M766.538 554.513H767.223V542.614H770.507V506.206H767.223V491.16H766.538V506.206H763.254V542.614H766.538V554.513Z" fill="#999999" />
    <path d="M749.229 578.727H749.921V563.682H753.198V532.676H749.921V504.01H749.229V532.676H745.945V563.682H749.229V578.727Z" fill="#999999" />
    <path d="M731.92 563.122H732.606V548.077H735.896V509.37H732.606V494.325H731.92V509.37H728.637V548.077H731.92V563.122Z" fill="#999999" />
    <path d="M714.618 608.644H715.304V593.599H718.581V548.973H715.304V533.927H714.618V548.973H711.334V593.599H714.618V608.644Z" fill="#999999" />
    <path d="M697.309 674.825H697.995V659.779H701.279V621.398H697.995V600.108H697.309V621.398H694.026V659.779H697.309V674.825Z" fill="#999999" />
    <path d="M680.001 633.063H680.692V606.34H683.976V573.385H680.692V558.339H680.001V573.385H676.717V606.34H680.001V633.063Z" fill="#999999" />
    <path d="M662.698 567.014H663.384V551.969H666.661V516.68H663.384V492.297H662.698V516.68H659.414V551.969H662.698V567.014Z" fill="#999999" />
    <path d="M645.395 600.926H646.081V585.886H649.359V541.261H646.081V526.215H645.395V541.261H642.112V585.886H645.395V600.926Z" fill="#999999" />
    <path d="M628.087 669.814H628.772V645.702H632.056V605.979H628.772V595.103H628.087V605.979H624.803V645.702H628.087V669.814Z" fill="#999999" />
    <path d="M610.778 627.083H611.464V612.031H614.747V567.411H611.464V552.366H610.778V567.411H607.494V612.031H610.778V627.083Z" fill="#999999" />
    <path d="M593.469 686.417H594.155V671.377H597.439V626.746H594.155V611.706H593.469V626.746H590.192V671.377H593.469V686.417Z" fill="#999999" />
    <path d="M576.167 621.398H576.859V610.786H580.13V566.16H576.859V546.687H576.167V566.16H572.889V610.786H576.167V621.398Z" fill="#999999" />
    <path d="M558.858 567.147H559.55V552.101H562.828V515.801H559.55V492.43H558.858V515.801H555.575V552.101H558.858V567.147Z" fill="#999999" />
    <path d="M541.556 607.272H542.235V598.387H545.525V547.601H542.235V532.555H541.556V547.601H538.266V598.387H541.556V607.272Z" fill="#999999" />
    <path d="M524.253 568.446H524.933V553.394H528.217V521.342H524.933V493.735H524.253V521.342H520.964V553.394H524.253V568.446Z" fill="#999999" />
    <path d="M506.939 644.823H507.624V629.784H510.908V585.158H507.624V570.112H506.939V585.158H503.661V629.784H506.939V644.823Z" fill="#999999" />
    <path d="M489.636 673.712H490.322V658.672H493.605V614.047H490.322V599.001H489.636V614.047H486.346V658.672H489.636V673.712Z" fill="#999999" />
  </g>
  <defs>
    <linearGradient id="paint0_linear_53_1897" x1="8903.56" y1="301.665" x2="8903.56" y2="1114.85" gradientUnits="userSpaceOnUse">
      <stop stop-color="#E6E6E6" /><stop offset="1" stop-color="white" />
    </linearGradient>
    <linearGradient id="paint1_linear_53_1897" x1="11783.8" y1="178.017" x2="11783.8" y2="1115" gradientUnits="userSpaceOnUse">
      <stop stop-color="#E6E6E6" /><stop offset="1" stop-color="white" />
    </linearGradient>
    <linearGradient id="paint2_linear_53_1897" x1="6464.42" y1="429.09" x2="6464.42" y2="1114.85" gradientUnits="userSpaceOnUse">
      <stop stop-color="#E6E6E6" /><stop offset="1" stop-color="white" />
    </linearGradient>
    <linearGradient id="paint3_linear_53_1897" x1="3749.5" y1="602.577" x2="3749.5" y2="1114.85" gradientUnits="userSpaceOnUse">
      <stop stop-color="#E6E6E6" /><stop offset="1" stop-color="white" />
    </linearGradient>
    <linearGradient id="paint4_linear_53_1897" x1="3861.51" y1="570.486" x2="3861.51" y2="1114.85" gradientUnits="userSpaceOnUse">
      <stop stop-color="#E6E6E6" /><stop offset="1" stop-color="white" />
    </linearGradient>
    <linearGradient id="paint5_linear_53_1897" x1="9057.91" y1="312.717" x2="9057.91" y2="1114.85" gradientUnits="userSpaceOnUse">
      <stop stop-color="#E6E6E6" /><stop offset="1" stop-color="white" />
    </linearGradient>
    <linearGradient id="paint6_linear_53_1897" x1="3983.83" y1="572.38" x2="3983.83" y2="1114.85" gradientUnits="userSpaceOnUse">
      <stop stop-color="#E6E6E6" /><stop offset="1" stop-color="white" />
    </linearGradient>
    <linearGradient id="paint7_linear_53_1897" x1="3142.05" y1="610.045" x2="3142.05" y2="1114.85" gradientUnits="userSpaceOnUse">
      <stop stop-color="#E6E6E6" /><stop offset="1" stop-color="white" />
    </linearGradient>
    <linearGradient id="paint8_linear_53_1897" x1="6116.59" y1="464.583" x2="6116.59" y2="1114.85" gradientUnits="userSpaceOnUse">
      <stop stop-color="#E6E6E6" /><stop offset="1" stop-color="white" />
    </linearGradient>
    <linearGradient id="paint9_linear_53_1897" x1="4885.94" y1="538.165" x2="4885.94" y2="1114.85" gradientUnits="userSpaceOnUse">
      <stop stop-color="#E6E6E6" /><stop offset="1" stop-color="white" />
    </linearGradient>
    <linearGradient id="paint10_linear_53_1897" x1="9893.66" y1="266.778" x2="9893.66" y2="1114.85" gradientUnits="userSpaceOnUse">
      <stop stop-color="#E6E6E6" /><stop offset="1" stop-color="white" />
    </linearGradient>
    <linearGradient id="paint11_linear_53_1897" x1="7299.4" y1="401.308" x2="7299.4" y2="1114.85" gradientUnits="userSpaceOnUse">
      <stop stop-color="#E6E6E6" /><stop offset="1" stop-color="white" />
    </linearGradient>
    <clipPath id="clip0_53_1897">
      <rect width="2046" height="1137" fill="white" transform="translate(-680 -22)" />
    </clipPath>
  </defs>
</svg>
